<?xml version="1.0" encoding="UTF-8" standalone="no"?>
<!DOCTYPE svg PUBLIC "-//W3C//DTD SVG 1.1//EN" "http://www.w3.org/Graphics/SVG/1.1/DTD/svg11.dtd">
<svg width="100%" height="100%" viewBox="0 0 8778 3558" version="1.1" xmlns="http://www.w3.org/2000/svg" xmlns:xlink="http://www.w3.org/1999/xlink" xml:space="preserve" xmlns:serif="http://www.serif.com/" style="fill-rule:evenodd;clip-rule:evenodd;stroke-linejoin:round;stroke-miterlimit:2;">
    <g transform="matrix(1,0,0,1,1577.291667,-1254.166764)">
        <g>
            <g>
                <g transform="matrix(4.166667,0,0,4.166667,0,-1925.458333)">
                    <path d="M1269.55,1383.08C1417.71,1378.2 1537.37,1383.22 1537.37,1394.37C1537.37,1399.8 1509.01,1405.68 1462.8,1410.88C1399.36,1399.33 1334.2,1389.66 1269.55,1383.08ZM1452.91,1411.96C1423.48,1415.04 1387.78,1417.85 1348.14,1420.12C1281.22,1407.11 1212.81,1396.39 1145.44,1389.42C1180.31,1386.93 1219.5,1384.84 1260.98,1383.38C1325.18,1390.13 1389.76,1400.01 1452.91,1411.96ZM1379.79,1455.47C1360.8,1461.29 1317.6,1465.98 1268.04,1469.63C1149.33,1438.13 1026.41,1408.6 902.21,1383.14C951.23,1388.38 1000.15,1393.55 1048.82,1398.8C1065.52,1396.54 1085.68,1394.36 1108.51,1392.35C1201.08,1408.51 1293.3,1430.73 1379.79,1455.47ZM1277.05,1424.94C1286.12,1426.07 1295.18,1427.21 1304.22,1428.36C1379.66,1437.98 1399.16,1446.11 1386.43,1452.86C1350.97,1443.13 1314.36,1433.73 1277.05,1424.94ZM1330.29,1421.1C1311.38,1422.08 1291.71,1422.93 1271.5,1423.64C1220,1411.61 1167.24,1400.77 1114.41,1391.84C1122.3,1391.17 1130.47,1390.52 1138.93,1389.89C1202.75,1397.09 1267.08,1407.94 1330.29,1421.1ZM1250.85,1470.84C1194,1474.66 1131.7,1477.19 1088.94,1478.55C994.03,1452.23 899.44,1429.34 806.44,1410.93C893.37,1428.88 984.07,1451.96 1076.65,1478.92C1056.14,1479.52 1041.85,1479.79 1037.56,1479.75C971.73,1479.17 904.31,1476.65 826.62,1473.53C688.06,1430.6 541.52,1394.6 402.84,1376.72C538.24,1395.3 678.98,1430.43 813.25,1472.98C806.28,1472.68 799.34,1472.35 792.44,1472.02C760.44,1463.35 728.55,1455.19 696.83,1447.56C726.75,1455.01 757.1,1463.11 787.79,1471.78C755.56,1470.15 724.01,1468.1 693.02,1465.62C516.93,1411.08 332.16,1363.22 140.39,1327.04C217.29,1328.9 293.09,1331.98 361.52,1336.63L507.83,1319.68C562.45,1326.33 617.08,1334.14 671.59,1342.94C648.2,1345.39 627.2,1346.81 600.45,1348.62C691.23,1360.13 782.61,1370.29 873.71,1380.08C1001.73,1406.34 1128.07,1437.25 1250.85,1470.84ZM665.23,1463.26C618.39,1459.09 572.75,1453.91 527.86,1447.74C523.39,1448.99 517.74,1450.22 511.03,1451.4C395.21,1417.15 279.41,1387.67 165.96,1364.87C272.9,1387.27 385.52,1417.48 500.33,1453.13C488.87,1454.83 475.21,1456.44 459.7,1457.91C420.78,1445.32 381.54,1433.22 342.15,1421.74C353.14,1421.86 363.83,1422.03 374.21,1422.26C277.39,1403.45 181.57,1379.69 81.75,1350.89C56.52,1343.6 56.23,1344.92 31.84,1346.87C14.78,1343.71 -2.21,1340.75 -19.13,1337.98C-2.89,1340.67 13.71,1343.66 30.66,1346.96L29.45,1347.06C16.34,1348.06 1.43,1348.98 -14.95,1349.79C-49.77,1340.88 -84.6,1332.5 -118.86,1324.9C-39.79,1324.39 46.76,1324.88 132.24,1326.85C319.76,1362.47 494.45,1408.34 665.23,1463.26ZM442.46,1459.43C418,1461.44 389.89,1463.14 359.26,1464.43C322.23,1451.05 280.56,1436.83 235.95,1422.45C246.95,1422.2 258.13,1422 269.5,1421.85C288.03,1421.61 306.11,1421.54 323.59,1421.61C362.97,1433.54 402.73,1446.21 442.46,1459.43ZM347.71,1464.89C332.46,1465.46 316.65,1465.94 300.39,1466.3C259.35,1451.87 217.72,1437.86 175.74,1424.44C192.1,1423.73 209.19,1423.13 226.86,1422.68C270.92,1437.12 311.82,1451.42 347.71,1464.89ZM277.72,1466.73C274.99,1466.77 272.25,1466.81 269.5,1466.84C265.6,1466.89 261.72,1466.93 257.86,1466.97C216.14,1452.81 174.17,1439.34 132.19,1426.72C140.2,1426.22 148.47,1425.76 156.99,1425.32C197.34,1438.59 237.72,1452.46 277.72,1466.73ZM241.05,1467.08C198.62,1467.26 159.11,1466.58 124.83,1465.21C97.32,1454.97 69.5,1444.96 41.36,1435.17C62.18,1432.19 89.79,1429.53 122.18,1427.36C161.26,1439.71 201.02,1453.03 241.05,1467.08ZM105.18,1464.32C40.6,1461.03 -1.06,1455.09 -1.06,1447.81C-1.06,1444.04 10.09,1440.35 29.78,1436.98C54.86,1445.81 79.99,1454.92 105.18,1464.32ZM-21.11,1350.09C-39.06,1350.93 -58.63,1351.65 -79.4,1352.2C-118.82,1342.6 -158.15,1333.8 -197.2,1325.95C-180.29,1325.55 -162.68,1325.27 -144.59,1325.1C-138.14,1325.04 -131.64,1324.99 -125.08,1324.94C-90.83,1332.63 -55.97,1341.09 -21.11,1350.09ZM-89.18,1352.45C-106.95,1352.88 -125.5,1353.19 -144.59,1353.36C-173.48,1353.63 -201.14,1353.57 -226.69,1353.23C-255.94,1345.56 -285.63,1338.21 -315.77,1331.19C-285.26,1328.93 -245.48,1327.11 -200.6,1326.03C-164.62,1333.71 -127.34,1342.58 -89.18,1352.45ZM-238.6,1353.05C-321,1351.63 -378.55,1347.19 -378.55,1341.4C-378.55,1337.85 -356.86,1334.41 -321.05,1331.59C-293.57,1338.4 -266.08,1345.55 -238.6,1353.05ZM513.02,1319.08L605.94,1308.32C735.82,1316.34 778.04,1326.51 699.4,1339.67C692.02,1340.63 685.07,1341.46 678.38,1342.21C623.08,1333.4 567.88,1325.63 513.02,1319.08Z"/>
                </g>
                <g transform="matrix(4.166667,0,0,4.166667,0,-4560.083333)">
                    <path d="M1313.75,1938.45L1316,1937.87C1339.73,1967.24 1372.23,1991.09 1411.41,1991.09C1417.14,1991.09 1422.85,1990.57 1428.49,1989.54C1443.67,1986.77 1457.5,1980.52 1469.96,1972.01C1453.67,1973.07 1437.26,1973.23 1420.94,1973.61C1409.69,1973.88 1398.83,1973.8 1387.91,1971.18L1387.56,1971.09L1387.53,1971.09C1386.52,1970.84 1385.52,1970.58 1384.53,1970.29L1384.46,1970.27C1374.34,1967.38 1364.58,1962.54 1355.31,1955.97L1355.19,1955.88C1354.32,1955.26 1353.44,1954.62 1352.57,1953.97L1352.36,1953.8C1351.5,1953.15 1350.65,1952.49 1349.8,1951.81L1349.61,1951.66C1348.74,1950.97 1347.88,1950.26 1347.02,1949.53L1346.97,1949.49C1340.75,1944.21 1334.79,1938.13 1329.13,1931.34L1328.9,1931.07C1328.19,1930.22 1327.49,1929.35 1326.79,1928.48C1326.65,1928.31 1326.52,1928.13 1326.38,1927.96L1326.17,1927.7C1170.21,1960.5 981.87,1950.53 843.38,1941.51C766.97,1936.53 672.4,1926.56 597.52,1914.93L591.69,1913.95C578.48,1965.5 559.04,2003.46 536.39,2018.72C526.9,2024.08 516.01,2026.18 505.23,2025.97C491.6,2025.7 481.78,2025.43 442.41,2024.52C430.85,2024.26 423.38,2023.81 412.17,2019.69C411.78,2019.54 411.39,2019.4 411.01,2019.25C407.55,2017.89 404.17,2016.24 401.17,2014.03C396.94,2009.88 392.89,2004.45 389.05,1997.87C384.47,2002.88 379.66,2005.55 374.69,2005.55C352.68,2005.55 333.69,1953.08 324.92,1877.32L136.18,1853.47C134.02,1854.65 131.8,1855.54 129.33,1855.76C128.37,1855.84 127.42,1855.83 126.47,1855.73L126.45,1855.8C121.05,1877.73 113.73,1900.93 104.11,1917.86C97,1930.39 88.08,1940.27 77.81,1940.27C76.57,1940.27 75.34,1940.13 74.11,1939.84C67.2,1938.23 61.07,1932.23 55.8,1924.24C41.18,1924.55 24.32,1923.72 14.28,1922.97C8.34,1935.76 1.2,1942.97 -6.79,1942.97C-34.19,1942.97 -61.27,1858.32 -67.29,1753.89C-69.77,1710.77 -68.27,1671.03 -63.73,1639.22C-66.98,1669.15 -67.81,1704.64 -65.62,1742.69C-59.46,1849.63 -31.72,1936.33 -3.67,1936.33C2.89,1936.33 8.88,1931.58 14.14,1922.96C10.53,1922.69 7.81,1922.43 6.44,1922.24C1.69,1921.59 -2.81,1920.39 -6.67,1917.51C-11.32,1914.04 -12.18,1911.01 -16.04,1907.21C-17.34,1905.94 -18.56,1904.45 -19.91,1902.91C-44.33,1874.98 -59.7,1800.97 -59.7,1715.74C-59.7,1642.57 -47.22,1580.16 -30.2,1547.57C-24.72,1537.06 -13.51,1527.65 -12.55,1526.04C-10.98,1522.49 -9.35,1519.69 -7.68,1517.75C-5.85,1515.63 -5.05,1515.23 -2.32,1514.77C4.39,1513.66 19.25,1513.3 22.7,1513.26C28.14,1513.2 33.53,1513.31 38.88,1513.58C47.22,1514.02 71.73,1516.05 77.82,1518.87C78.68,1519.27 79.54,1519.8 80.39,1520.46C83.92,1523.17 87.33,1528.03 90.56,1534.75C103.48,1544.18 114.59,1574.38 121.62,1616.34C130.32,1619.19 136.67,1621.59 145.37,1627.09L146.43,1627.76C148.34,1629 150.23,1630.27 152.09,1631.58L152.2,1631.66L152.52,1631.73C153.59,1631.97 154.56,1632.41 155.53,1632.91L155.54,1632.92L155.61,1632.96L155.62,1632.96C156.25,1633.29 156.92,1633.69 157.58,1633.95C157.71,1634 157.85,1634.05 158,1634.08C177.46,1638.49 194.65,1641.05 214.1,1645.65L214.22,1645.67C215.92,1645.95 217.66,1646.13 219.36,1646.3C219.73,1646.34 220.1,1646.37 220.47,1646.41C220.77,1646.43 221.07,1646.46 221.36,1646.49L221.8,1646.53C222.77,1646.61 223.74,1646.68 224.7,1646.75C225.26,1646.79 225.82,1646.82 226.38,1646.85L226.37,1646.85C223.83,1645.6 221.77,1643.52 220.2,1641.18L220.19,1641.17C219.06,1639.43 218.19,1637.48 217.74,1635.44C217.44,1634.03 217.33,1632.71 217.43,1631.27C218.27,1620.53 224.29,1616.02 233.59,1615.26C253.51,1613.64 273.42,1611.91 293.34,1610.2C298.43,1598.23 303.8,1587.19 312.95,1575.6C330.42,1553.49 350.59,1536.65 379.17,1533.19C379.84,1531.87 380.51,1530.57 381.19,1529.3L382.26,1498C382.43,1491.04 384.36,1490.73 389.22,1490.56L407.11,1490.04C403.83,1494.63 401.28,1499.38 399.94,1502.51C403.43,1497.06 407.01,1491.59 411.6,1486.99C413.8,1484.86 416.04,1483.05 418.3,1481.58C423.22,1478.4 428.33,1476.98 434.58,1477.05L465.32,1478.82C468.24,1464.99 471.09,1450.66 476.55,1437.53C487.02,1412.36 503.51,1394.24 532.66,1395.48C541.22,1395.84 549.87,1397.97 557.28,1402.08C559.24,1403.17 560.77,1404.16 562.02,1405.15C568.15,1403.77 574.47,1403.08 580.88,1403.16C608.31,1403.49 636.34,1418.03 653.78,1449.25C655.76,1452.8 656.99,1455.55 657.79,1458.12C658.66,1458.61 659.51,1459.13 660.37,1459.67C663.74,1461.81 667.19,1463.96 667.14,1468.18L667.05,1476.36L667.05,1476.41L667.04,1476.62L667.04,1477.35L667.03,1477.42L667.03,1478.06L667.02,1478.21L667.02,1479L667.01,1479.23L667.01,1479.94L667,1480.06L667,1480.64L666.99,1480.86L666.99,1481.65L666.98,1481.82L666.98,1482.52L666.97,1482.71L666.97,1483.23L666.85,1493.31C666.05,1493.55 665.24,1493.8 664.43,1494.05C664.19,1497.74 664.22,1498.33 660.51,1500.26C660.5,1501.3 660.4,1502.33 660.2,1503.35C696.93,1497.44 816.06,1492.15 839.02,1503.56C848.71,1508.38 849.45,1510.88 856.64,1518.29C862.21,1524.04 881.17,1542.54 898.46,1558.4L924.38,1582.18C926.39,1584.02 927.82,1585.09 928.29,1585.32C929.3,1585.82 954.37,1589.54 957.04,1589.94C1003.63,1596.99 1038.29,1602.56 1085.17,1612.19C1116.66,1618.66 1181.82,1631.35 1213.73,1639.78C1222.29,1642.04 1232.23,1645.09 1242.97,1648.66C1246.08,1635.86 1249.13,1620.65 1252.36,1610.57C1255.14,1601.89 1259.22,1594.48 1268.86,1591.8C1277.09,1589.51 1286.36,1591.76 1292.23,1597.9C1292.87,1598.58 1293.53,1599.37 1294.2,1600.27L1294.43,1599.7C1294.74,1598.98 1295.04,1598.25 1295.35,1597.53C1303.37,1578.78 1313.73,1560.51 1326.94,1544.91C1332.75,1538.05 1339.15,1531.66 1346.2,1526.09C1346.27,1526.03 1346.35,1525.97 1346.42,1525.91C1359.09,1515.93 1373.74,1508.71 1389.75,1506.36L1389.77,1506.36L1389.86,1506.34L1390.33,1506.28L1390.33,1506.27C1393.9,1505.79 1397.42,1505.63 1400.99,1505.43C1412.04,1504.88 1423.09,1504.41 1434.15,1504.1L1434.21,1504.1L1434.24,1504.09L1434.57,1504.09L1434.6,1504.08L1434.89,1504.08L1434.93,1504.07L1435.25,1504.07L1435.29,1504.06L1435.61,1504.06L1435.64,1504.05L1436,1504.05L1436.04,1504.04L1436.23,1504.04C1446.23,1503.77 1456.2,1503.61 1465.82,1503.61C1473.56,1503.61 1481.14,1504.59 1488.63,1506.46C1514.37,1512.91 1536.17,1529.5 1553.27,1549.34C1573.04,1572.29 1587.5,1600.49 1597.43,1628.9L1597.45,1628.96L1597.46,1628.97C1608.77,1661.36 1615.68,1698.27 1616.81,1737.52C1620.37,1861.51 1565.05,1961.81 1489.78,1970.42C1484.21,1971.06 1478.77,1971.44 1473.19,1971.8C1459.36,1982.89 1443.56,1991.1 1425.86,1994.33C1420.51,1995.31 1415.11,1995.8 1409.67,1995.8C1369.48,1995.8 1336.78,1969.39 1313.75,1938.45ZM205.33,1725.76C206.65,1723.17 207.6,1721.4 207.67,1721.32C208.05,1720.85 208.51,1720.5 209.04,1720.24C209.19,1719.65 209.45,1719.12 209.84,1718.64C211.25,1716.93 213.81,1716.67 215.52,1718.08L220.23,1721.89L220.65,1721.43L216.47,1718.05C214.75,1716.64 214.5,1714.08 215.9,1712.36C216.28,1711.9 216.74,1711.55 217.26,1711.29C217.41,1710.78 217.66,1710.32 218,1709.9C219.13,1708.53 220.99,1708.09 222.57,1708.7C222.43,1707.69 222.46,1706.67 222.81,1705.68C222.92,1705.4 223.04,1705.13 223.19,1704.87C223.51,1704.32 224.07,1704.02 224.71,1704.04C225.12,1704.07 225.47,1704.21 225.76,1704.47C226.91,1703.59 228.5,1703.07 229.82,1702.72C229.79,1702.54 229.77,1702.37 229.75,1702.2L184.67,1688.21C183.22,1688.38 181.53,1688.21 179.78,1687.66C178.04,1687.12 176.49,1686.27 175.27,1685.27L142.68,1675.08C142.75,1687.77 142.79,1700.49 142.78,1713.23L198.18,1718.87C201.61,1719.22 204.43,1722.26 204.59,1725.7L205.33,1725.76ZM1616.6,1640.44C1627.79,1674.34 1633,1710.47 1633,1746.12C1633,1791.08 1624.63,1837.85 1605.48,1878.72C1595.05,1900.97 1580.54,1923.04 1561.81,1939.83C1579.36,1920.61 1592.88,1897.23 1602.66,1873.67C1619.89,1832.18 1627.55,1786.12 1627.55,1741.32C1627.55,1707.12 1623.11,1672.64 1613.71,1639.74C1609.67,1625.59 1604.65,1611.55 1598.58,1597.99C1605.86,1611.64 1611.83,1626 1616.6,1640.44ZM1281.25,1709.25L1308.2,1712.87L1315.27,1714.9L1326.32,1715.08L1329.66,1702.33L1323.54,1697.77L1320.49,1696.08L1268.63,1698.27L1266.99,1699.91L1270.56,1700.77L1311.01,1707.28L1321.26,1713.64L1300.4,1710.11L1267.62,1700.88L1263.77,1700.02L1230.41,1700.19L1190.75,1701.86L1188.63,1702.64L1190.95,1703.8L1193.96,1704.59L1281.25,1709.25ZM146.43,1627.76C146.08,1627.54 145.72,1627.31 145.37,1627.09C145.72,1627.31 146.08,1627.54 146.43,1627.76ZM491.28,1460.04C489.61,1465.99 488.3,1472.03 487.02,1478.08L495.6,1478.08C499.01,1450.25 516.01,1427.02 538.83,1414.12C538.49,1414.11 538.15,1414.12 537.81,1414.12L537.77,1414.12C537.44,1414.12 537.1,1414.13 536.77,1414.14L536.75,1414.14C536.42,1414.15 536.09,1414.17 535.76,1414.19L535.73,1414.19C535.41,1414.2 535.09,1414.22 534.77,1414.25L534.72,1414.25C534.41,1414.28 534.1,1414.3 533.79,1414.33L533.72,1414.34C533.42,1414.37 533.11,1414.4 532.81,1414.44L532.75,1414.44C532.44,1414.48 532.13,1414.52 531.82,1414.57L531.81,1414.57C531.51,1414.61 531.2,1414.66 530.9,1414.71L530.84,1414.72C530.54,1414.77 530.25,1414.82 529.96,1414.87L529.91,1414.88C529.62,1414.94 529.32,1415 529.03,1415.06L528.99,1415.07C528.7,1415.13 528.41,1415.19 528.13,1415.26L528.07,1415.27C527.79,1415.34 527.5,1415.41 527.22,1415.48L527.19,1415.49C520.97,1417.12 515.68,1420.12 511.14,1424.18L511.14,1424.19C506.17,1428.64 502.36,1434.12 499.2,1439.97C495.78,1446.43 493.29,1453.02 491.28,1460.04ZM329.02,1877.83C338.53,1949.22 357.16,1997.73 378.58,1997.73C381.58,1997.73 384.52,1996.77 387.39,1994.94C383.55,1987.92 379.93,1979.72 376.56,1970.48C364.18,1950.37 354.02,1918.92 347.22,1880.13L329.02,1877.83ZM129.43,1740.9C128.69,1771.43 126.13,1799.84 122.21,1824.42C125.39,1824.84 128.49,1825.1 131.63,1824.45C133.22,1816.8 134.7,1809.07 136.04,1801.24C136.33,1781.48 136.61,1761.57 136.79,1741.65L129.43,1740.9ZM1249.86,1650.99C1258.38,1653.91 1267.3,1657.11 1276.38,1660.46C1279.91,1642.3 1284.85,1624.39 1291.48,1607.11L1291.64,1606.69C1290.51,1605.05 1289.4,1603.71 1288.33,1602.77C1279.31,1594.88 1266.69,1597.2 1260.88,1607.54C1256.89,1614.65 1252.7,1637.28 1249.86,1650.99ZM258.35,1810.49C245.97,1788.13 248.26,1789.9 247.95,1762.09C247.86,1754.9 245.83,1757.14 244.42,1753.95L244.41,1753.96C243.05,1754.5 241.49,1754.27 240.35,1753.33L233.39,1749.82L237.96,1753.59C239.68,1754.99 239.93,1757.55 238.52,1759.27C237.12,1760.99 234.56,1761.24 232.84,1759.83L227.99,1755.83L224.52,1759.69L229.3,1763.62C231.01,1765.03 231.27,1767.59 229.86,1769.31C228.45,1771.03 225.89,1771.28 224.17,1769.87L219.12,1765.71L215.3,1769.96L220.41,1774.17C222.13,1775.58 222.38,1778.14 220.97,1779.86C219.57,1781.57 217.01,1781.83 215.29,1780.42L209.9,1775.98L206.39,1779.89L211.45,1784.07C213.17,1785.47 213.43,1788.03 212.02,1789.75C210.97,1791.02 209.3,1791.49 207.8,1791.08C208.24,1792.36 208.02,1793.83 207.11,1794.95C207.1,1794.96 207.1,1794.96 207.09,1794.97C206.93,1795.44 206.7,1795.87 206.38,1796.25C204.98,1797.97 202.42,1798.22 200.7,1796.81L195.35,1792.43L195.21,1792.34L170.55,1819.81C170.55,1819.82 170.54,1819.83 170.53,1819.84C169,1821.34 167.58,1823.02 165.88,1824.33C162.54,1826.9 158.91,1827.22 154.86,1826.64C154.68,1826.76 154.5,1826.89 154.31,1827.02C154.4,1828.64 154.93,1830.13 155.26,1831.72C155.75,1834.04 155.59,1835.92 154.47,1838.05C154.21,1838.54 153.92,1839.02 153.59,1839.49L285.71,1845.96C274.55,1835.09 264.62,1821.82 258.35,1810.49ZM124.2,1855.39C123.32,1855.22 122.46,1855.03 121.61,1854.81C119.93,1854.38 118.25,1853.9 116.58,1853.44L116.52,1853.42C111.17,1875.87 104.47,1893.12 96.93,1903.07C96.17,1904.08 95.4,1905.01 94.63,1905.86C90.44,1910.46 86.99,1917.42 82.28,1920.43C81.75,1920.77 81.11,1921.08 80.35,1921.37C76.26,1922.92 69.01,1923.74 60.59,1924.09C64.13,1927.42 67.95,1929.77 72.03,1930.72C73.37,1931.03 74.71,1931.19 76.06,1931.19C87.08,1931.19 96.62,1920.8 104.26,1907.35C112.45,1892.93 119.02,1874.22 124.2,1855.39ZM144.09,1812.26C143.93,1810.44 144.14,1808.81 144.86,1807.07C145.13,1806.42 145.58,1805.74 145.97,1805.15C146.62,1804.2 147.29,1803.27 147.99,1802.37C150.06,1799.67 152.25,1797.05 154.44,1794.46C160.36,1787.46 166.48,1780.6 172.61,1773.78L168.58,1770.48C166.86,1769.08 166.61,1766.52 168.02,1764.8L168.03,1764.78C168.19,1764.31 168.43,1763.88 168.74,1763.5C169.78,1762.22 171.46,1761.76 172.96,1762.17C172.52,1760.89 172.74,1759.41 173.65,1758.3C175.06,1756.58 177.62,1756.33 179.34,1757.73L183.83,1761.39C184.65,1760.49 185.47,1759.59 186.29,1758.7L184.08,1757.01C182.89,1756.16 182.31,1754.74 182.48,1753.35C181.41,1751.9 181.42,1749.85 182.61,1748.4C184.02,1746.68 186.58,1746.43 188.29,1747.84L192.82,1751.57C194,1750.28 195.18,1749 196.36,1747.72L156.52,1743.66L144.19,1742.4C143.71,1747.8 143.19,1753.19 142.62,1758.55C142.5,1778.72 142.31,1798.83 142.1,1818.74C143.26,1817.55 144.06,1813.94 144.09,1812.26ZM234.36,1694.48C234.55,1694.32 234.73,1694.15 234.92,1693.98C236.2,1692.8 237.47,1691.6 238.74,1690.41L238.76,1689.07C203.6,1680.76 191.99,1668.75 163.24,1645.31L161.76,1644.11L143.69,1639.91C143.25,1639.97 142.79,1640 142.33,1640.02C142.44,1648.39 142.54,1656.8 142.61,1665.24L176.46,1676.2C178.1,1675.89 180.1,1675.95 182.11,1676.66C184.1,1677.36 185.81,1678.43 187.07,1679.64L222.51,1691.12L234.36,1694.48ZM238.84,1684.96L239.31,1659.84C239.33,1658.99 239.39,1657.92 239.4,1656.77L225.5,1656.77C217.02,1656.77 214.97,1656.78 206.66,1654.53L171.39,1646.34L172.06,1646.88L172.1,1646.91L172.72,1647.41L173.17,1647.77L173.38,1647.94L174.04,1648.48L175.3,1649.5L175.36,1649.55L176.68,1650.61L177.34,1651.15L177.43,1651.22L178,1651.68L178.49,1652.08L178.66,1652.21L180.62,1653.79L180.63,1653.8C182.03,1654.93 183.42,1656.05 184.81,1657.15L184.86,1657.2C188.32,1659.94 191.8,1662.65 195.36,1665.27C195.67,1665.5 195.97,1665.72 196.28,1665.94L196.29,1665.95C201.38,1669.66 206.7,1673.24 212.29,1676.15C220.1,1680.22 230.33,1683.07 238.84,1684.96ZM250.67,1656.77C250.16,1663.02 249.82,1674.17 249.59,1685.05L254.5,1682.08C257.04,1676.59 260.05,1671.31 263.55,1666.32C266.59,1661.99 268.83,1658.97 270.53,1656.77L250.67,1656.77ZM133.28,1824.01C133.93,1823.8 134.59,1823.55 135.25,1823.24C135.41,1823.17 135.57,1823.09 135.72,1823.02L135.93,1808.87C135.1,1813.95 134.21,1819 133.28,1824.01ZM143.34,1748.81C143.58,1746.67 143.81,1744.53 144.03,1742.39L142.71,1742.25C142.69,1746.51 142.67,1750.76 142.64,1755.01C142.88,1752.94 143.12,1750.87 143.34,1748.81ZM127.08,1660.21L136.85,1663.37C136.77,1655.24 136.65,1647.13 136.49,1639.07C132.91,1637.79 129.19,1635.1 130.06,1631C130.66,1628.14 134.01,1627.48 137.1,1627.55C133.35,1626.07 128.86,1624.67 122.67,1622.88C124.46,1634.56 125.95,1647.06 127.08,1660.21ZM129.59,1711.89L136.99,1712.64C137.04,1699.48 137.02,1686.36 136.94,1673.29L127.88,1670.46C128.82,1683.74 129.4,1697.61 129.59,1711.89ZM322.71,1589.6C321.43,1592.71 318.22,1601.26 318.34,1604.9C318.41,1607.23 318.88,1608.43 320.71,1609.11C320.92,1609.11 321.12,1609.11 321.34,1609.1C326.13,1601.29 330.59,1593.26 334.73,1585.03C330.75,1586.07 326.69,1587.39 322.95,1589.04L322.71,1589.6ZM343.45,1556.66C337.13,1563.32 330.69,1573.17 326.06,1582.33C329.79,1581.06 333.63,1580.11 337.5,1579.39C341.98,1570.05 346.12,1560.49 349.9,1550.69C347.69,1552.42 345.6,1554.39 343.45,1556.66ZM222.51,1691.12L222.511,1691.12L222.511,1691.119L222.51,1691.119L222.51,1691.12Z"/>
                </g>
                <g transform="matrix(4.166667,0,0,4.166667,0,-1243.375)">
                    <path d="M-1.43,1150.42C115.78,1172.56 231.96,1199.9 346.93,1231.8C471.89,1266.47 597.46,1300.93 717.17,1350.71C1013.64,1473.99 1029.06,1461.94 969.32,1437.1C895.79,1408.87 822.07,1381.12 747.91,1354.56C661.6,1323.64 574.71,1294.38 487,1267.66C395.54,1239.81 303.26,1214.76 210.12,1193.17C140.01,1176.91 69.47,1162.63 -1.43,1150.42Z" style="fill-rule:nonzero;"/>
                </g>
            </g>
            <g transform="matrix(4.166667,0,0,4.166667,0,-4471.333333)">
                <path d="M677.04,1645.71L738.91,1671.1C740.03,1672.36 740,1674.15 739.17,1675.8L675.68,1649.7C675.57,1649.97 675.45,1650.24 675.33,1650.51L669.39,1648.06L670.7,1644.88L671.37,1643.24L659.62,1638.41L660.25,1633.88L659.49,1635.16L658.56,1637.97L656.58,1642.8L635.3,1634.05L636.61,1630.87L637.79,1628.01L630.38,1624.96L630.93,1621.52L629.7,1622.75L614.38,1620.55C614.38,1618.5 614.26,1616.5 614.09,1614.67C613.45,1607.72 612.83,1605.91 610.55,1605.07C608.41,1604.29 606.43,1603.64 604.51,1603.06C612.2,1602.13 619.89,1601.22 627.58,1600.25C633.24,1599.53 638.9,1598.77 644.53,1597.84C659,1595.44 673.42,1591.95 687.69,1588.58C691.07,1587.78 694.45,1586.99 697.83,1586.2C785.48,1595.12 875.46,1607.27 963.21,1621.35C960.49,1623.73 958.4,1626.32 957.17,1629.13C953.83,1636.71 955.64,1646.48 962.51,1653.11C983.94,1673.78 1024.08,1675.53 1052.8,1677.66C1088.71,1680.33 1139.16,1681.12 1175.58,1680.12C1190.58,1679.71 1208.62,1678.4 1225.28,1677.88C1227.66,1677.8 1239.64,1677.43 1255.36,1676.85C1258.17,1677.47 1260.98,1678.09 1263.77,1678.72C1254.72,1679.02 1242.31,1679.42 1225.34,1679.95C1211.62,1680.38 1197.91,1681.32 1184.2,1681.89L1184.17,1681.89C1185.69,1682.7 1187.22,1683.52 1188.76,1684.34C1216.28,1699.04 1263.73,1722.14 1282.7,1745.13L1289.25,1745C1269.59,1722.44 1223.21,1700.33 1196.42,1685.52L1190.95,1682.5C1200.64,1681.99 1210.34,1681.43 1220.04,1681.13C1243.63,1680.4 1258.41,1679.91 1267.62,1679.58C1283.68,1683.19 1299.37,1686.8 1314.68,1690.43C1300.35,1686.78 1285.64,1683.13 1270.56,1679.47C1284.82,1678.95 1298.8,1678.05 1313.87,1677.11C1317.09,1676.91 1320.31,1676.7 1323.54,1676.47C1358.51,1695.59 1389.8,1715.02 1411.29,1733.29C1413.1,1734.83 1416.35,1738.05 1418.01,1739.57C1420.2,1739.57 1422.37,1739.42 1424.97,1739.66C1403.73,1719.24 1368.67,1697.07 1328.84,1675.29C1325.61,1675.52 1322.39,1675.73 1319.17,1675.93C1300.92,1677.07 1284.86,1678 1266.99,1678.61C1264.36,1677.97 1261.72,1677.34 1259.07,1676.71C1287.23,1675.63 1325.2,1673.92 1342.55,1671.99C1344.95,1671.72 1349.92,1671.14 1353.1,1669.63C1362.55,1673.62 1371.14,1677.35 1378.41,1680.59C1418.98,1698.73 1453.15,1716.11 1489.42,1741.63C1498.13,1747.75 1503.27,1751.57 1506.82,1756.19C1516.99,1769.42 1518.6,1793.52 1513.41,1809.04C1509.15,1821.81 1500.91,1833.48 1490.62,1842.75C1497.97,1836.13 1503.11,1827.8 1507.42,1819.18C1513.74,1806.55 1515.47,1792.33 1512.69,1777.79C1509.29,1759.99 1497.49,1754.55 1477.62,1749.97C1466.2,1747.34 1454.28,1745.58 1445.43,1744.64C1401.63,1739.98 1337.63,1744.12 1286.94,1746.51C1222.52,1747.14 1197.19,1747.57 1150.81,1735.84C1041.33,1708.14 991.03,1681.54 850.38,1664.6C1052.59,1703.19 1179.67,1775.78 941.21,1706.42C987.92,1721.52 1060.55,1766.75 1179.67,1775.78C1177.5,1778.76 1175.87,1781.43 1174.63,1783.82C1112.25,1779.61 1082.17,1780.48 1042.15,1759.53C1071.85,1776.53 1066.03,1780.28 1067.95,1780.46C1068.76,1780.53 1069.7,1780.62 1070.77,1780.7C1088.88,1782.19 1147.58,1785.72 1174.23,1784.6C1169.1,1794.87 1171.01,1799.87 1166.03,1802.43C1157.66,1806.74 1077.62,1801.73 1066.05,1799.16C1066.21,1789.43 1068.95,1780.44 1060.98,1774.54C976.12,1711.66 914.46,1699.57 814.58,1683.24C804.87,1681.65 807.37,1677.78 810.39,1672.37C822.42,1650.59 835.09,1636.54 809.53,1636.26C807.82,1636.24 805.99,1636.23 804.05,1636.23C804.19,1636.39 804.34,1636.57 804.49,1636.77C811.54,1636.81 817.12,1637.3 819,1638.41C822.42,1640.45 823.19,1641.4 807.51,1643.54C809.84,1655.05 802.11,1670.28 799.17,1677.76C792.98,1693.52 787.1,1707.53 780.91,1723.79L780.45,1724.99L780.11,1716.36L780.49,1715.09C780.94,1713.39 781.96,1711.3 784.08,1705.78C788.63,1693.94 797.53,1672.24 800.87,1661C802.53,1655.42 804.05,1649.62 803.19,1644.11C796.19,1645 789.66,1645.76 776.9,1647.17C778.91,1653.54 780.66,1722.72 779.52,1705.79C778.53,1691.14 776.55,1672.12 774.54,1657.32C773.63,1650.66 772.35,1639.3 763.2,1639.2C756.74,1639.12 716.74,1651.37 702.83,1655.62L677.2,1645.08C677.15,1645.29 677.1,1645.5 677.04,1645.71ZM399.94,1959.41C392.38,1975.28 383.79,1984.25 374.69,1984.25C363.36,1984.25 352.83,1970.34 344.08,1946.5L350.88,1946.93C359.06,1965.71 368.51,1976.43 378.58,1976.43C386.14,1976.43 393.35,1970.37 399.94,1959.41ZM324.92,1856.02C324.57,1853.02 324.24,1849.99 323.93,1846.93L323.9,1846.69L132.72,1820.92L141.53,1820.41L323.61,1843.78C323.54,1843.09 323.48,1842.4 323.41,1841.71C323.35,1841.01 323.28,1840.3 323.21,1839.59C323.13,1838.67 323.05,1837.75 322.96,1836.83C322.88,1835.93 322.81,1835.03 322.73,1834.13C322.66,1833.34 322.6,1832.54 322.53,1831.75C322.46,1830.86 322.39,1829.96 322.32,1829.06C322.25,1828.26 322.19,1827.45 322.13,1826.64C322.06,1825.67 321.98,1824.69 321.91,1823.71C321.86,1822.95 321.81,1822.19 321.75,1821.43C321.68,1820.37 321.61,1819.31 321.54,1818.25L321.42,1816.26C321.34,1815.08 321.27,1813.89 321.2,1812.69L321.1,1811.01C321.03,1809.75 320.97,1808.48 320.9,1807.22L320.83,1805.75C320.76,1804.33 320.69,1802.91 320.62,1801.48L320.58,1800.51C320.51,1798.98 320.45,1797.44 320.39,1795.9L320.36,1795.09C320.3,1793.49 320.25,1791.88 320.2,1790.27L320.18,1789.61C320.12,1787.95 320.08,1786.27 320.03,1784.6L320.02,1784.04C319.98,1782.3 319.94,1780.56 319.91,1778.81L319.9,1778.55C319.87,1776.75 319.84,1774.94 319.81,1773.13L319.81,1772.92C319.79,1771.07 319.77,1769.21 319.76,1767.35L319.76,1767.27C319.75,1765.37 319.74,1763.47 319.74,1761.56L319.74,1759.18L319.75,1758.94L319.75,1756.81L319.77,1755.03L319.77,1754.33L319.79,1752.43L319.79,1751.78L319.82,1749.83L319.82,1749.7L319.85,1747.55L319.85,1747.2L319.89,1745.31L319.89,1745.04L319.9,1744.67L319.92,1743.39L319.94,1742.74L319.94,1742.44L319.99,1740.4L319.99,1740.18L320.04,1738.26L320.04,1738.06L320.06,1737.63L320.09,1736.35L320.11,1735.75L320.11,1735.72L320.17,1733.7L320.18,1733.18L320.23,1731.91L320.25,1731.28L320.26,1730.75L320.27,1730.65L320.31,1729.39L320.32,1729.22L320.33,1728.76L320.36,1728.13L320.41,1726.87L320.42,1726.57L320.43,1726.24L320.43,1726.2L320.48,1724.99L320.51,1724.36L320.53,1723.72L320.59,1722.44L320.63,1721.47L320.64,1721.24L320.67,1720.62L284.54,1718.26L304.04,1715.81L160.74,1705.26L169.12,1708.59L129.66,1703.05L129.66,1701.09L320.98,1714.3L320.99,1714.16C321.03,1713.38 321.08,1712.61 321.12,1711.84L321.12,1711.82L321.17,1710.99L321.21,1710.17L321.26,1709.34L321.36,1707.73L321.36,1707.7L321.41,1706.88C321.48,1705.79 321.55,1704.7 321.62,1703.62L321.68,1702.8L321.79,1701.18L321.84,1700.37C321.92,1699.29 322,1698.22 322.08,1697.14L322.32,1693.94C322.47,1692.08 322.62,1690.22 322.78,1688.38L322.99,1686.01L323.06,1685.23C323.15,1684.18 323.25,1683.14 323.35,1682.1L323.42,1681.33L323.57,1679.78L323.65,1679C323.75,1677.97 323.85,1676.94 323.96,1675.92L324.03,1675.15C324.22,1673.37 324.41,1671.59 324.61,1669.83L324.69,1669.07L324.87,1667.57L324.95,1666.82L325.13,1665.32L325.22,1664.58L325.31,1663.83C323.58,1661.72 322.02,1659.54 320.61,1657.29C311.31,1661.37 305.77,1666.84 298.84,1678.05C297.22,1668.53 268.35,1676.98 258.11,1677.76C254.49,1678.03 253.92,1678.83 253.92,1684.69L250.31,1685.12C248.21,1685.69 251.12,1671.93 252.72,1672.73C260.5,1675.52 272.1,1674.7 279.9,1672.26C281.07,1671.9 285.13,1670.11 281.32,1670.89C266.6,1673.42 254.45,1670.83 253.84,1669.02C252.15,1667.78 264.98,1642.19 266.87,1646.06C274.73,1667.71 310.85,1672.02 300.38,1667.51C285.83,1662.3 272.97,1653.87 269.88,1641.58C277.05,1630.77 286.92,1621.69 297.19,1613.71C300.12,1609.9 286.8,1618.8 280.59,1625.7C284.84,1616.05 288.95,1605.52 293.41,1594.94C268.84,1596.24 243.11,1598.3 221.31,1600.72C222.55,1598.03 226.77,1595.52 233.41,1594.97C254.16,1593.28 274.9,1591.47 295.65,1589.7C304.16,1570.07 314.14,1550.72 328.66,1536.89C341.62,1524.67 356.09,1515.98 373.97,1512.69L374.03,1512.67L374.42,1512.6L374.71,1512.55L375.24,1512.46L375.58,1512.41C375.81,1512.37 376.04,1512.33 376.27,1512.29L376.36,1512.28L376.39,1512.28C376.67,1512.23 376.95,1512.19 377.23,1512.15L377.39,1512.13C377.65,1512.09 377.9,1512.06 378.16,1512.02L378.3,1512C378.6,1511.96 378.89,1511.93 379.19,1511.89C377.97,1514.33 376.77,1516.87 375.59,1519.51C360.87,1521.45 349.75,1526.92 340.96,1535.14C340.73,1535.38 340.49,1535.62 340.26,1535.87C332.49,1544.05 324.54,1557.13 320.12,1567.67L319.89,1568.22L319.81,1568.42L319.77,1568.53L319.73,1568.61L319.7,1568.69C318.35,1572.06 315.49,1579.84 315.59,1583.25L315.6,1583.3L315.6,1583.49L315.61,1583.53L315.61,1583.69L315.62,1583.72L315.62,1583.85L315.63,1583.9L315.63,1583.95L315.64,1584L315.64,1584.05L315.65,1584.1L315.65,1584.15L315.66,1584.25L315.66,1584.26L315.67,1584.35L315.67,1584.36L315.68,1584.39L315.69,1584.46L315.69,1584.49L315.7,1584.53L315.7,1584.58L315.72,1584.66L315.72,1584.67L315.73,1584.72L315.73,1584.76L315.75,1584.84L315.75,1584.85L315.77,1584.93L315.77,1584.94L315.79,1585.02L315.79,1585.03L315.81,1585.1L315.81,1585.11L315.82,1585.14L315.83,1585.18L315.83,1585.2L315.84,1585.22L315.86,1585.28L315.86,1585.3L315.87,1585.34L315.88,1585.37L315.94,1585.53L315.97,1585.6L315.97,1585.61L316.03,1585.74L316.03,1585.76L316.04,1585.78L316.06,1585.81L316.07,1585.83L316.07,1585.85L316.13,1585.95L316.14,1585.97L316.14,1585.98L316.18,1586.04L316.18,1586.05L316.19,1586.06L316.19,1586.07L316.2,1586.07L316.2,1586.08L316.21,1586.08L316.21,1586.09L316.22,1586.11L316.23,1586.12L316.23,1586.13L316.24,1586.13L316.24,1586.15L316.25,1586.15L316.25,1586.16L316.26,1586.17L316.26,1586.18L316.27,1586.18L316.27,1586.19L316.28,1586.19L316.28,1586.21L316.29,1586.21L316.29,1586.22L316.31,1586.24L316.31,1586.25L316.32,1586.25L316.32,1586.26L316.34,1586.29L316.35,1586.3C316.74,1586.81 317.33,1587.17 318.04,1587.42C318.2,1587.48 318.38,1587.53 318.57,1587.58L318.59,1587.59L318.62,1587.6L318.63,1587.6C318.72,1587.62 318.81,1587.64 318.9,1587.66C320.86,1588.05 325.44,1587.59 327.26,1587.29L327.85,1587.17L343.57,1583.92L343.77,1583.88L345.65,1583.49L347.21,1583.17L347.72,1583.06L355.13,1581.53L355.73,1581.41L355.44,1582.65L355.41,1582.76L355.11,1584.1L355.1,1584.14L354.87,1585.15L354.8,1585.48L354.79,1585.55L354.54,1586.67L354.5,1586.85L354.45,1587.05L354.2,1588.22L354.18,1588.31L353.9,1589.59L353.9,1589.61L353.63,1590.86L353.6,1590.99L353.5,1591.5L353.36,1592.15L353.31,1592.39L353.23,1592.79L353.09,1593.43L353.02,1593.79L353.01,1593.85L352.83,1594.73L352.73,1595.19L352.7,1595.37L352.57,1596.02L352.54,1596.15L352.49,1596.41C355.01,1584.6 357.84,1573.54 360.92,1563.36C353.54,1593.96 348.27,1630.37 345.94,1669.95C345.2,1676.75 344.55,1683.69 343.97,1690.75C343.32,1701.1 342.89,1711.64 342.66,1722.37C341.54,1777.58 346.45,1828.26 355.56,1867.97C353.88,1851.95 352.7,1835.01 352.07,1817.38C362.73,1884.7 383.81,1929.81 408.94,1929.81C428.62,1929.81 446.92,1902.16 460.33,1857.84C446.68,1914.47 425.84,1951.19 403.17,1951.19C379.45,1951.19 359.34,1911.04 348.2,1849.96L327.85,1847.22L327.93,1847.86C328.28,1850.79 328.64,1853.68 329.03,1856.54L329.02,1856.53L324.92,1856.02ZM330.03,1631.83C330.23,1630.67 330.44,1629.51 330.66,1628.37C330.44,1629.51 330.23,1630.67 330.03,1631.83ZM330.7,1628.14C330.8,1627.59 330.9,1627.05 331,1626.5C330.9,1627.05 330.8,1627.59 330.7,1628.14ZM322.96,1713.36L322.92,1714.44L336.54,1715.38L322.85,1716.5L322.85,1716.54L322.84,1716.58L322.84,1716.81L322.83,1716.85L322.83,1717.09L322.82,1717.13L322.82,1717.37L322.81,1717.4L322.81,1717.68L322.8,1717.72L322.8,1718L322.79,1718.04L322.79,1718.28L322.78,1718.36L322.78,1718.59L322.77,1718.63L322.77,1718.95L322.76,1718.99L322.76,1719.03L324.41,1720.86L322.71,1720.75L322.7,1721.18L322.69,1721.46L322.68,1721.6L322.67,1722.03L322.65,1722.88L322.64,1723.3L322.63,1723.5L322.63,1723.73L322.59,1725.01L322.58,1725.43L322.58,1725.54L322.57,1725.86L322.54,1727.14L322.53,1727.57L322.53,1727.59L322.52,1728L322.49,1729.29L322.49,1729.71L322.45,1731.43L322.45,1731.86L322.42,1733.59L322.41,1733.77L322.41,1734.02L322.39,1735.74L322.38,1735.84L322.38,1736.18L322.36,1737.91L322.36,1737.92L322.35,1739.21L322.34,1739.64L322.34,1740.08C322.33,1741.38 322.32,1742.68 322.31,1743.99L322.31,1744.43L322.3,1746.14L322.3,1748.36C322.3,1750.29 322.31,1752.22 322.32,1754.14L322.32,1754.34C322.33,1756.22 322.35,1758.09 322.37,1759.95L322.38,1760.28C322.4,1762.14 322.43,1764 322.46,1765.85L322.46,1765.91L322.47,1766.02C322.5,1767.84 322.54,1769.66 322.59,1771.47L322.6,1771.86C322.64,1773.65 322.69,1775.43 322.75,1777.2L322.76,1777.66C322.82,1779.39 322.88,1781.11 322.94,1782.83L322.96,1783.4C323.02,1785.03 323.09,1786.66 323.16,1788.28L323.2,1789.1C323.27,1790.7 323.34,1792.3 323.42,1793.9L323.47,1794.76C323.54,1796.28 323.63,1797.79 323.71,1799.3L323.78,1800.48C323.86,1801.9 323.95,1803.3 324.03,1804.7L324.12,1806.02C324.21,1807.41 324.3,1808.8 324.39,1810.19L324.49,1811.51C324.58,1812.83 324.68,1814.15 324.78,1815.47L324.89,1816.92C324.99,1818.18 325.09,1819.43 325.19,1820.68L325.33,1822.41C325.43,1823.56 325.53,1824.71 325.63,1825.86L325.8,1827.72C325.9,1828.79 326,1829.87 326.1,1830.94C326.17,1831.59 326.23,1832.24 326.29,1832.89C326.4,1834 326.52,1835.11 326.63,1836.22L326.83,1838.12C326.94,1839.16 327.05,1840.21 327.17,1841.25L327.38,1843.2L327.51,1844.28L347.65,1846.86C341.31,1810.76 338.06,1767.63 338.98,1721.29C339.27,1706.71 339.97,1692.45 341.02,1678.62C335.36,1674.39 330.37,1669.82 326.19,1664.89L326.18,1665.03L326.16,1665.23L326.05,1666.38L325.98,1667.1L325.91,1667.85L325.84,1668.59L325.79,1669.2L325.77,1669.33L325.71,1670.08L325.69,1670.27L325.62,1671.04L325.51,1672.32L325.49,1672.47L325.48,1672.65L325.38,1673.83L325.33,1674.35L325.31,1674.58L325.31,1674.62L325.19,1676.04L325.19,1676.09L325.17,1676.23L325.16,1676.44L325.03,1678.02L325.02,1678.13L325,1678.36L324.9,1679.69L324.82,1680.65L324.77,1681.41L324.73,1681.93L324.71,1682.17L324.62,1683.4L324.56,1684.21L324.54,1684.47L324.48,1685.24L324.45,1685.77L324.43,1686.01L324.38,1686.78L324.32,1687.56L324.31,1687.7L324.3,1687.89L324.21,1689.26L324.17,1689.85L324.07,1691.43L324.06,1691.57L323.96,1693.13L323.92,1693.77L323.88,1694.56L323.83,1695.34L323.82,1695.48L323.79,1696.12L323.72,1697.31L323.71,1697.44L323.7,1697.69L323.61,1699.27L323.6,1699.41L323.5,1701.24L323.5,1701.38L323.48,1701.64L323.4,1703.23L323.4,1703.36L323.39,1703.41L323.31,1705.19L323.3,1705.35L323.29,1705.61L323.21,1707.21L323.21,1707.38L323.14,1708.81L323.12,1709.34L323.11,1709.61L323.04,1711.21L323.04,1711.37L322.96,1713.34L322.96,1713.36ZM1469.96,1950.71C1479.25,1944.37 1487.77,1936.77 1495.51,1928.41C1488.75,1936.48 1481.31,1943.99 1473.19,1950.5L1469.96,1950.71ZM603.56,1894.75C600.42,1906.22 596.82,1917.55 592.69,1928.62C584.29,1951.09 572.72,1975.07 556.6,1992.99C544.58,2006.34 529.01,2017.16 510.42,2017.16C508.16,2017.16 505.91,2017 503.67,2016.68C494.63,2015.39 486.33,2011.62 478.87,2006.44C477.76,2006.43 476.65,2006.42 475.55,2006.4C484.43,2014.96 495.22,2022.05 507.63,2023.82C509.59,2024.1 511.56,2024.24 513.54,2024.24C530.32,2024.24 544.39,2014.15 555.17,2002.16C570.59,1985.03 581.68,1961.9 589.71,1940.42C595.26,1925.57 599.81,1910.26 603.56,1894.75ZM1316,1916.57C1314.15,1914.27 1312.34,1911.94 1310.59,1909.58C1309.93,1909.7 1309.27,1909.82 1308.61,1909.94C1310.26,1912.37 1311.98,1914.77 1313.75,1917.15L1316,1916.57ZM929.74,1565.58C930.75,1566.08 954.59,1569.81 957.26,1570.22C1003.85,1577.26 1038.51,1582.84 1085.39,1592.46C1116.88,1598.93 1181.62,1610.94 1213.54,1619.36C1226.79,1622.86 1243.52,1627.37 1261.26,1633.67C1247.9,1629.2 1233.48,1625.22 1221.02,1623.23C1215.95,1622.42 1194.09,1619.64 1187.8,1619.09C1186.84,1619.01 1151.3,1615.69 1159.58,1624.49C1164.68,1629.9 1183.81,1634.07 1191.12,1635.51C1192.6,1635.8 1194.24,1636.12 1196.04,1636.47C1216.44,1640.44 1239.66,1643.36 1260.42,1644.39C1263.95,1644.57 1268.83,1645.58 1266.02,1648.61C1262.67,1652.22 1250.33,1651.16 1247.22,1650.97C1235.44,1650.23 1212.2,1647.94 1201.04,1644.8C1195.23,1646.71 1189.42,1648.62 1183.61,1650.53C1212.84,1657.31 1236.32,1657.85 1266.14,1660.02C1279.63,1661 1286.74,1661.29 1300.04,1660.89C1302.09,1660.83 1309.02,1660.62 1309.38,1657.47C1310.08,1651.29 1285.04,1642.51 1280.03,1640.52C1304.45,1649.63 1329.73,1659.79 1350.93,1668.71L1349.22,1668C1319.82,1670.49 1260.58,1672.49 1243.62,1673.03C1214.18,1666.09 1183.6,1659.19 1152.2,1652.4C1151.96,1650.03 1151.81,1647.72 1151.53,1645.34C1140.95,1645.4 1131.14,1645.59 1121.54,1645.86C1109.18,1643.26 1096.73,1640.68 1084.18,1638.12C1093.28,1636.19 1106.73,1634.08 1118.25,1631.73C1125.27,1630.29 1155.67,1623.86 1133.21,1616.6C1123.99,1613.62 1108.14,1611.38 1089.77,1610.79C1057.97,1609.77 1021.74,1612.94 1013.84,1615.81L1032.78,1620.88C1032.78,1620.88 1036.23,1620.1 1044.86,1619.09C1056.82,1617.7 1083.64,1614.57 1094.59,1620C1098.49,1622.09 1094.95,1623.87 1092.87,1624.57C1084.82,1627.28 1070.84,1627.82 1057.66,1630.84C1056.21,1631.17 1054.67,1631.51 1053.04,1631.87C1027.8,1626.88 1002.29,1622 976.64,1617.27C981.37,1612.88 988.25,1609.17 995.95,1606.12C995.23,1606.32 994.51,1606.53 993.79,1606.74L991.58,1606.19C920.35,1586.15 846.07,1577.9 776.84,1562.64C771.29,1561.42 766.1,1559.27 761.14,1556.78C772.59,1549.88 785.98,1545.27 801.78,1542.58C808.57,1541.43 815.82,1540.61 823.54,1540.13C851.56,1538.39 869.62,1536.68 900.39,1556.17C905.01,1559.1 909.83,1562.27 915.46,1564.34C923.61,1567.33 932.52,1570.1 942.01,1572.69L929.74,1565.58ZM986.08,1609.23C980.48,1611.22 975.16,1613.52 970.6,1616.16C891.03,1601.57 810.34,1588.45 733.1,1577.86L733.11,1577.85C738.17,1570.23 744.48,1563.77 751.69,1558.38C756.93,1561.07 762.41,1563.4 768.3,1564.7C838.04,1580.08 912.91,1588.33 984.62,1608.7L986.08,1609.23ZM925.47,1561.86C925.74,1562.09 925.99,1562.3 926.22,1562.5L925.47,1561.86ZM1281.17,1637.3C1292.8,1632.98 1309.39,1626.99 1309.39,1626.99C1307.56,1628.24 1291.75,1635.02 1289.92,1636.27C1298.21,1633.19 1320.46,1624.59 1328.75,1621.5C1328.95,1620.6 1329.15,1619.72 1329.44,1618.91L1319.39,1622.95L1319.67,1622.33C1329.64,1600.34 1347.17,1575.54 1372.68,1570.29C1375.85,1569.65 1379.04,1569.32 1382.27,1569.32C1410.72,1569.32 1432.96,1594 1446.25,1616.27C1450.25,1622.98 1453.84,1630.04 1457.03,1637.34C1453.5,1628.7 1449.44,1620.37 1444.82,1612.52C1431.7,1590.24 1409.76,1565.56 1381.69,1565.56C1378.5,1565.57 1375.35,1565.89 1372.23,1566.54C1347.05,1571.78 1329.76,1596.58 1319.91,1618.57C1319.17,1620.23 1318.45,1621.91 1317.76,1623.6L1312.85,1625.57C1327.83,1586.7 1352.63,1561.71 1381.69,1561.71C1431.94,1561.71 1475.9,1636.39 1479.87,1728.5C1479.91,1729.52 1479.95,1730.53 1479.98,1731.54L1468.08,1723.8C1463.35,1645.53 1425.63,1582.84 1382.6,1582.84C1363.9,1582.84 1347.22,1594.68 1334.5,1614.5C1337.43,1613.7 1339.34,1614.18 1341.89,1616.3C1345.51,1614.95 1347.69,1613.67 1350.48,1614.39C1352.99,1615.04 1351.86,1616.64 1350.56,1617.17C1350.55,1617.17 1350.28,1617.28 1349.75,1617.49C1343.18,1620.12 1294.57,1640.89 1294.91,1640.75C1295.27,1640.61 1345.29,1621.43 1345.29,1621.43L1298.56,1643.96L1281.17,1637.3ZM972.13,1622.79C971.83,1623.32 971.55,1623.86 971.31,1624.41C967.97,1631.99 969.79,1641.76 976.65,1648.39C998.08,1669.06 1038.22,1670.81 1066.94,1672.95C1102.85,1675.62 1153.31,1676.4 1189.72,1675.41C1204.5,1675 1222.24,1673.72 1238.69,1673.19C1210.38,1667.03 1181.11,1660.95 1151.09,1655L1127.04,1655.44C1091.63,1656.36 1059.02,1658.21 1024.19,1664.2C1014.93,1646.38 1028.02,1638.84 1042.12,1634.63C1019.02,1630.56 995.66,1626.61 972.13,1622.79ZM1106.35,1646.35C1096.05,1644.4 1085.69,1642.48 1075.27,1640.58C1070.99,1642.42 1070.28,1644.87 1069.93,1647.88C1082.87,1647.31 1094.67,1646.78 1106.35,1646.35ZM1445.72,1737.18C1459.64,1738.89 1476.86,1742.29 1490.4,1746.49C1494.7,1749.53 1499.04,1752.7 1503.42,1756.01C1487.25,1747.83 1463.99,1743.62 1445.13,1741.3C1409.55,1715.13 1369.97,1691.34 1334.87,1674.84C1362.73,1682.38 1422.28,1719.94 1445.72,1737.18ZM1326.54,1698.47C1319.01,1700.3 1286.58,1697.51 1309.26,1692.77C1306.25,1692.76 1300.11,1693.6 1297.59,1694.92C1296.32,1695.59 1293.26,1697.8 1294.59,1699.19C1298.53,1703.33 1324.02,1699.14 1326.54,1698.47ZM1236.33,1635.53C1245.09,1634.98 1240.6,1632.54 1235.77,1630.78C1229.25,1628.41 1221.22,1626.97 1214.43,1626.11C1208.52,1625.36 1203.11,1625.25 1202.37,1627.17C1201.36,1629.76 1211.27,1632.94 1220.76,1634.36C1227.7,1635.41 1234.48,1635.64 1236.33,1635.53ZM830.15,1479.48C828.91,1479.22 827.6,1478.97 826.22,1478.73C836.61,1490.82 861.05,1520.33 860.1,1519.14C864.67,1521.89 869.59,1524.67 874.99,1527.45C854.12,1521.22 832.06,1523.93 808.04,1525.07C799.89,1509.88 793.24,1497.48 787.56,1486.63L785.85,1486.44C784.62,1486.31 783.38,1486.19 782.14,1486.09C789.05,1497.27 797.15,1509.88 807.08,1525.12C802.27,1525.36 797.42,1525.72 792.61,1526.24C786.09,1514.05 779.07,1500.38 771.78,1485.67L770.38,1485.67C769.51,1485.67 768.63,1485.68 767.76,1485.7C774.15,1497.99 781.28,1511.39 789.5,1526.6C774.34,1528.48 759.83,1532.1 748.61,1539.08C748.04,1539.44 747.48,1539.8 746.93,1540.16C736.76,1521.21 728.45,1505.69 721.33,1492.1L720.78,1492.27C718.18,1493.04 715.61,1493.89 713.06,1494.82C720.62,1509.76 729.21,1526.1 739.88,1545.86C732.31,1553.38 729.16,1562.53 728.64,1574.51L724.56,1575.46C710.02,1548.03 699.29,1527.02 689.67,1506.25C686.58,1508.16 683.57,1510.16 680.63,1512.27L680.39,1512.45C691,1531.91 703.08,1552.02 718.76,1576.82C710.54,1578.74 702.26,1580.69 694.04,1582.62C681.72,1559.44 672.75,1542 664.79,1524.94C663.66,1525.93 662.54,1526.93 661.43,1527.94C660.47,1528.81 659.52,1529.68 658.57,1530.57L658.14,1530.97C666.81,1546.7 676.77,1563.14 689.79,1583.61C688.08,1584.01 686.37,1584.4 684.67,1584.8C681.68,1585.51 678.88,1586.18 676.29,1586.8C665.44,1566.53 657.6,1551.64 650.93,1537.92C649.56,1539.29 648.2,1540.68 646.86,1542.09L646.38,1542.6C653.78,1555.47 662.53,1569.48 674.04,1587.33C672.01,1587.82 670.08,1588.28 668.27,1588.71C660.95,1574.88 653.23,1559.81 645.25,1543.8C644.27,1544.86 643.3,1545.92 642.34,1547L641.76,1547.66C648.55,1560.62 655.95,1574.5 664.14,1589.69C641.66,1594.98 634.71,1596.13 603.36,1600L603.52,1600.82C635.1,1597 643.14,1596.3 665.08,1591.43L665.14,1591.41L665.2,1591.4L665.26,1591.38L665.33,1591.37L665.39,1591.36L665.45,1591.34L665.51,1591.33L665.58,1591.32L665.64,1591.3L665.7,1591.29L665.77,1591.27L665.89,1591.25L665.96,1591.23L666.02,1591.22L666.08,1591.2L666.14,1591.19L666.17,1591.18L666.27,1591.16L666.34,1591.15L666.4,1591.13L666.46,1591.12L666.53,1591.1L666.59,1591.09L666.65,1591.07L666.72,1591.06L666.78,1591.05L666.85,1591.03L666.91,1591.02L666.98,1591L667.04,1590.99L667.1,1590.97L667.17,1590.96L667.23,1590.94L667.3,1590.93L667.36,1590.91L667.43,1590.9L667.49,1590.89L667.52,1590.88L667.56,1590.87L667.62,1590.86L667.69,1590.84L667.75,1590.83L667.82,1590.81L667.89,1590.8L667.95,1590.78L668.02,1590.77L668.08,1590.75L668.15,1590.74L668.21,1590.72L668.28,1590.71L668.35,1590.69L668.41,1590.68L668.48,1590.66L668.54,1590.65L668.61,1590.63L668.68,1590.62L668.81,1590.59L668.88,1590.57L669.01,1590.54L669.08,1590.53L669.15,1590.51L669.21,1590.5C671.1,1590.07 673.09,1589.61 675.2,1589.12L675.26,1589.1L675.29,1589.1L675.33,1589.09L675.36,1589.08L675.39,1589.08L675.45,1589.06L675.49,1589.05L675.52,1589.05L675.61,1589.02L675.65,1589.02L675.74,1588.99L675.77,1588.99L675.81,1588.98L675.87,1588.96L675.9,1588.96L675.94,1588.95L676,1588.93L676.03,1588.93L676.06,1588.92L676.1,1588.91L676.13,1588.9L676.16,1588.9L676.19,1588.89L676.23,1588.88L676.29,1588.86L676.32,1588.86L676.36,1588.85L676.42,1588.83L676.45,1588.83L676.49,1588.82L676.55,1588.8L676.58,1588.8L676.62,1588.79L676.68,1588.77L676.72,1588.77L676.81,1588.74L676.85,1588.74L676.94,1588.71L676.98,1588.7L677.01,1588.7L677.04,1588.69L677.08,1588.68L677.11,1588.67L677.14,1588.67L677.17,1588.66L677.21,1588.65L677.24,1588.64L677.27,1588.64C680.3,1587.93 683.59,1587.15 687.16,1586.3L690.71,1585.48L730.53,1575.89C730.99,1565.46 733.41,1557.47 739.19,1550.68C742.53,1546.79 746.29,1543.54 750.63,1540.84C772.11,1527.5 808.27,1526.67 833.91,1525.71C857.98,1524.82 879.79,1526.6 900.94,1541.9L901.16,1542.05C901.57,1542.35 901.98,1542.66 902.39,1542.97L923.72,1560.31C921.47,1558.34 918.53,1555.68 915.13,1552.57L899.62,1539.96C891.87,1534.12 883.99,1530.25 875.93,1527.73C863.68,1513.37 850.03,1499.17 830.15,1479.48ZM823.8,1478.35C819.8,1477.75 815.3,1477.27 810.38,1476.87C817.42,1485.15 823.46,1492.38 828.96,1499.17C835.43,1503.08 841.85,1507.48 848.97,1512.13C839.83,1499.17 831.48,1487.84 823.8,1478.35ZM809.73,1476.82C808.42,1476.71 807.09,1476.62 805.73,1476.53C809.6,1482.25 813.08,1487.46 816.31,1492.38C819.09,1493.67 821.8,1495.06 824.46,1496.55C820.02,1490.41 815.2,1483.96 809.73,1476.82ZM781.7,1475.62C779.74,1475.59 777.75,1475.56 775.74,1475.55C777.32,1478.17 778.97,1480.86 780.68,1483.64C782.54,1483.76 784.35,1483.92 786.11,1484.12C784.57,1481.18 783.11,1478.35 781.7,1475.62ZM772.4,1475.53C769.09,1475.52 765.74,1475.53 762.36,1475.56C763.68,1478.12 765.03,1480.73 766.41,1483.39C767.78,1483.36 769.12,1483.34 770.43,1483.33L769.79,1482.04L770.63,1483.33C772.62,1483.33 774.55,1483.36 776.42,1483.42L772.4,1475.53ZM713.45,1477.17C710.36,1477.35 707.33,1477.53 704.36,1477.72C706.76,1482.63 709.25,1487.62 711.85,1492.78C714.56,1491.77 717.31,1490.86 720.11,1490.03C717.77,1485.56 715.55,1481.28 713.45,1477.17ZM677.97,1479.84C672.9,1480.35 668.35,1480.88 664.43,1481.42C669.21,1491.28 674.07,1500.77 679.27,1510.37C682.4,1508.13 685.54,1506.04 688.68,1504.12C685.01,1496.14 681.49,1488.16 677.97,1479.84ZM647.64,1484.97C644.23,1485.96 640.61,1487.12 636.84,1488.39C643.4,1502.82 649.76,1515.64 656.98,1528.85C657.92,1527.98 658.88,1527.1 659.85,1526.21C661.17,1525.02 662.47,1523.86 663.77,1522.73C658.21,1510.7 653.11,1498.75 647.64,1484.97ZM634.43,1489.22C630.34,1490.63 626.11,1492.18 621.81,1493.8C629.43,1511.08 636.37,1525.05 645.16,1540.48C646.67,1538.9 648.23,1537.31 649.86,1535.69C647.32,1530.41 644.94,1525.27 642.62,1520.02C645.3,1524.56 648.17,1529.29 651.27,1534.3C652.37,1533.22 653.49,1532.13 654.65,1531.03C646.48,1515.31 640.33,1502.74 634.43,1489.22ZM621.07,1494.08C619.22,1494.79 617.36,1495.5 615.5,1496.23C623.11,1511.63 631.3,1527.69 640.6,1545.44C641.74,1544.16 642.92,1542.87 644.14,1541.57C636.63,1526.46 628.9,1510.55 621.07,1494.08ZM777.8,1485.81C783.17,1496.66 785.38,1502.71 782.02,1500.99C778.49,1495.59 775.16,1490.48 772.04,1485.67C773.47,1485.68 774.91,1485.71 776.34,1485.76L777.8,1485.81ZM827.26,1500.8C828.04,1501.9 828.82,1502.98 829.58,1504.06C830.33,1508.32 831.03,1512.81 831.93,1517.27C827.73,1510.29 823.44,1503.49 818.61,1496.09C820.2,1496.89 821.76,1497.72 823.32,1498.59L827.26,1500.8ZM746.02,1540.79C735.51,1524.65 726.62,1510.85 718.88,1498.49C726.93,1515.06 734.7,1530.46 741.88,1544C743.15,1542.9 744.53,1541.82 746.02,1540.79ZM740.3,1545.45C740.2,1545.55 740.1,1545.64 740,1545.74L740.3,1545.45ZM761.86,1680.28C762.22,1681.97 762.43,1683.9 762.43,1685.96C762.43,1692.49 760.35,1697.78 757.77,1697.78C755.39,1697.78 753.43,1693.26 753.15,1687.42C753.64,1692.5 755.45,1696.27 757.6,1696.27C760.14,1696.27 762.19,1691.06 762.19,1684.64C762.19,1683.09 762.08,1681.64 761.86,1680.28ZM760.12,1684.25C759.98,1685.01 759.47,1685.41 758.86,1685.41C757.24,1685.41 757.18,1684.63 757.71,1683.33C758.34,1681.82 758.22,1680.44 758.91,1680.73C759.39,1680.94 760.27,1682.26 760.12,1684.25ZM769.7,1677.61C771.86,1677.88 773.52,1683.41 770.01,1686.36C766.33,1689.46 758.14,1677.98 768.65,1677.62C768.97,1677.61 769.37,1677.57 769.7,1677.61ZM731.34,1698.24C731.34,1697.62 731.33,1697 731.32,1696.37C731.31,1695.42 731.29,1694.47 731.26,1693.52L623.9,1650.03L731.34,1698.24ZM1428.69,1756.07C1426.16,1755.92 1424.02,1755.82 1422.41,1755.77C1384.66,1754.61 1329.85,1755.58 1286.7,1758.62C1287.76,1755.66 1287.35,1752.46 1295.65,1751.79C1336.72,1748.49 1381.67,1747.73 1422.9,1749.18C1429.87,1749.42 1430.66,1752.04 1428.69,1756.07ZM1331.23,1702.13C1331.28,1702.36 1331.31,1702.58 1331.31,1702.81C1331.31,1707.34 1320.6,1709.38 1307.4,1707.37C1294.2,1705.37 1283.5,1700.07 1283.5,1695.54C1283.5,1694.8 1283.78,1694.13 1284.32,1693.53C1284.24,1693.78 1284.2,1694.04 1284.2,1694.32C1284.2,1698.78 1294.75,1703.99 1307.76,1705.97C1320.11,1707.85 1330.24,1706.12 1331.23,1702.13ZM1491.27,1674.33C1476.13,1590.06 1431.94,1528.72 1380.47,1528.72C1336.9,1528.72 1299.53,1572.67 1281.03,1637.26L1280.52,1637.14L1280.54,1637.06C1290.05,1594.86 1322.46,1518.11 1372.83,1514.39C1440.34,1509.4 1477.99,1593.07 1491.27,1674.33ZM1369.62,1630.18L1373.39,1628.17L1374.53,1636.73L1371.08,1638.82L1369.62,1630.18ZM1362.54,1624.36L1369.36,1629.96L1373.26,1627.87L1366.11,1622.09L1362,1623.68L1361.16,1625.29L1362.54,1624.36ZM1408.06,1629.27C1418.95,1640.18 1373.9,1648.81 1349.92,1647.66C1381.2,1653.83 1425.26,1638.38 1408.06,1629.27ZM1380.15,1598.89C1382.5,1598.19 1384.58,1598.18 1384.79,1598.88C1385,1599.58 1383.26,1600.72 1380.9,1601.42C1378.54,1602.13 1376.46,1602.13 1376.26,1601.43C1376.05,1600.73 1377.79,1599.59 1380.15,1598.89ZM1378.9,1605.36C1379.02,1605.33 1378.79,1605.16 1378.7,1604.81C1378.66,1604.65 1378.66,1604.48 1378.72,1604.31C1379,1603.47 1381.23,1602.63 1382.48,1601.94C1383.79,1601.21 1384.13,1600.63 1383.81,1600.76C1382.62,1601.28 1381.52,1601.73 1380.53,1602.05C1378.64,1602.65 1377.15,1602.74 1375.99,1601.95C1375.85,1602.18 1375.71,1602.61 1375.69,1603.1C1375.61,1604.88 1377.28,1605.82 1378.9,1605.36ZM1378.45,1606.2C1377.34,1608.69 1377.96,1611.75 1383.18,1611.16C1379.42,1611.36 1377.65,1607.72 1380.74,1605.74C1379.98,1606.16 1379.2,1606.34 1378.45,1606.2ZM1373.13,1623.47C1372,1618.41 1374.04,1612.78 1378.57,1610.65C1377.85,1611.82 1378.66,1613.74 1381.94,1614.37C1378.39,1614.1 1372.1,1614.38 1373.13,1623.47ZM1388.6,1606.92C1396.81,1605.8 1400.14,1609.29 1402.49,1617.3C1399.91,1611.17 1398.84,1608.25 1392.34,1608.85C1392.72,1613.19 1385.1,1614.67 1382.76,1614.36C1382.75,1614.36 1382.78,1614.31 1382.84,1614.32C1386.21,1614.9 1394.51,1609.63 1388.6,1606.92ZM1331.5,1644.17C1332.4,1641.74 1333.87,1639.66 1336.69,1638.08L1345.82,1633.92C1346.69,1633.66 1347.63,1633.62 1348.67,1633.96C1349.04,1633.84 1349.47,1633.67 1349.95,1633.46C1353.89,1631.73 1361.21,1627.38 1363.79,1627.68C1364.66,1627.78 1365.57,1628.18 1366.38,1628.78L1352.04,1635.45C1350.31,1635.28 1348.61,1634.83 1347.46,1635.31L1338.65,1639.13C1336.73,1640.12 1335.3,1642.88 1335.94,1645.52C1337.04,1642.54 1338.69,1641.13 1340.45,1640.07C1342.63,1639.05 1344.81,1638.02 1346.99,1637C1348.82,1636.26 1349.41,1636.38 1351.57,1637.25L1367.46,1629.73C1369.26,1631.65 1370.09,1634.49 1367.98,1636.35L1357,1642.05C1355.74,1643.26 1357.13,1643.25 1351.55,1645.77C1349.95,1646.5 1348.58,1647.07 1346.32,1647.75C1341.76,1649.13 1334.79,1647.87 1331.5,1644.17ZM1333.95,1647.31C1334.76,1648.14 1334.8,1649.16 1334.83,1650.31L1326.77,1654.7L1323.23,1653.37L1333.95,1647.31ZM504.53,1664.58C505.03,1680.71 505.09,1696.83 504.72,1712.95C503.88,1749.76 500.9,1786.72 495.26,1823.11C490.58,1853.34 484,1884 474.26,1913.03C470.31,1924.78 465.78,1936.43 460.36,1947.59C455.94,1956.67 450.81,1965.68 444.67,1973.72C436.56,1984.35 425.07,1995.22 411.05,1996.1C418.49,1999.56 425.49,1999.29 433.4,1995.87C459.38,1984.63 475.89,1932.43 482.55,1907.73C489.78,1880.93 494.69,1853.22 498.21,1825.7C502.38,1793.06 504.6,1760.07 505.28,1727.17C505.71,1706.32 505.49,1685.43 504.53,1664.58ZM448.83,1456.57L453.43,1456.84C492.63,1476.89 520.5,1589.82 517.49,1726.66C516.94,1751.72 515.39,1775.97 512.98,1799.01C515.14,1775.67 516.42,1751.08 516.65,1725.68C517.89,1588.49 488.43,1475.73 448.83,1456.57ZM468.86,1457.72L480.15,1458.37C517.67,1486.47 545.2,1594 544.72,1723.7C544.56,1768.35 541.09,1810.59 535.08,1848.02C540.02,1812.61 542.72,1773.21 542.62,1731.7C542.27,1592.11 510.28,1477.39 468.86,1457.72ZM494.25,1459.18L501.64,1459.61C505.99,1463.6 509.76,1468.28 512.91,1472.81C518.35,1480.64 522.85,1489.29 526.71,1497.99C531.43,1508.63 535.33,1519.7 538.69,1530.84C542.6,1543.83 545.81,1557.06 548.51,1570.35C551.55,1585.3 553.95,1600.39 555.86,1615.53C557.95,1632.08 559.44,1648.72 560.42,1665.38C561.47,1683.2 561.94,1701.05 561.87,1718.9C561.79,1740.35 560.94,1761.81 559.25,1783.2C559.2,1783.77 559.16,1784.34 559.11,1784.91C560.35,1765.58 560.91,1746.2 560.87,1726.83C560.78,1693.28 558.88,1659.59 554.72,1626.29C552.87,1611.41 550.55,1596.57 547.67,1581.86C545.07,1568.63 542.02,1555.47 538.33,1542.5C535.11,1531.2 531.41,1519.98 526.98,1509.09C523.27,1499.96 519.01,1490.92 513.9,1482.49C508.97,1474.34 502.36,1465.36 494.25,1459.18ZM511.2,1460.16L513.43,1460.29C515.68,1460.5 517.94,1460.89 520.2,1461.46C576.94,1503.8 589.91,1693.47 581.58,1771.05C582.35,1752.54 581.69,1734.16 581.26,1715.63C580.52,1683.53 578.9,1651.14 574.39,1619.32C567.94,1573.79 557.36,1522.46 533.23,1483C528.12,1474.65 520.15,1465.77 511.2,1460.16ZM534.9,1467.89C535.3,1468.14 535.7,1468.4 536.1,1468.67L536.31,1449.96C542.04,1447.28 550.74,1444.79 558.08,1443.02C564.47,1441.47 572.37,1440.23 580.84,1439.37L580.84,1452.14C570.71,1453.46 560.94,1455.24 552.93,1457.08C549.28,1457.92 543,1459.03 540.96,1461.63C540.02,1462.83 540.04,1467.91 540.1,1471.55C544.58,1475.04 548.95,1479.35 553.13,1484.51C593.7,1549.47 602.92,1702.92 597.41,1772.83C598.17,1754.32 597.51,1735.94 597.08,1717.41C596.34,1685.31 594.72,1652.92 590.21,1621.1C583.76,1575.57 573.18,1524.24 549.05,1484.78C545.5,1478.98 540.57,1472.93 534.9,1467.89ZM413.43,1544.03C444.83,1544.03 469.18,1626.32 467.82,1727.83C466.45,1829.35 439.89,1911.64 408.49,1911.64C377.09,1911.64 352.74,1829.35 354.1,1727.83C355.47,1626.32 382.03,1544.03 413.43,1544.03ZM457.13,1662.32C457.35,1664.07 457.56,1665.83 457.75,1667.62C452.89,1671.93 449.92,1679.04 445.84,1694.61C441.12,1672.37 445.93,1647.59 452.16,1632.3C447.6,1610.93 441.44,1593.64 434.2,1582.28L434.19,1582.27C433.91,1581.83 433.63,1581.41 433.35,1580.99L433.33,1580.96L433.04,1580.53C432.79,1580.16 432.53,1579.8 432.27,1579.44L432.06,1579.14C431.79,1578.78 431.53,1578.43 431.26,1578.09C431.14,1577.93 431.02,1577.78 430.9,1577.62C430.66,1577.32 430.42,1577.02 430.17,1576.73C430.03,1576.55 429.88,1576.38 429.74,1576.21C429.53,1575.97 429.33,1575.74 429.12,1575.51C428.93,1575.29 428.74,1575.08 428.54,1574.88C428.37,1574.69 428.19,1574.51 428.02,1574.33C427.81,1574.12 427.6,1573.91 427.4,1573.71C427.23,1573.55 427.07,1573.39 426.91,1573.24C426.68,1573.03 426.45,1572.82 426.22,1572.62C426.08,1572.5 425.94,1572.38 425.8,1572.26C425.54,1572.04 425.28,1571.82 425.02,1571.62C424.9,1571.52 424.77,1571.43 424.65,1571.33C424.37,1571.12 424.08,1570.91 423.79,1570.71L423.53,1570.53C423.21,1570.31 422.89,1570.1 422.56,1569.91L422.35,1569.78C422.02,1569.59 421.69,1569.41 421.36,1569.24L421.18,1569.15C420.83,1568.97 420.48,1568.81 420.13,1568.66L419.99,1568.59C419.62,1568.44 419.25,1568.3 418.87,1568.17L418.78,1568.14C418.39,1568.01 418.01,1567.9 417.62,1567.8L417.58,1567.79C417.18,1567.69 416.79,1567.6 416.39,1567.54L416.33,1567.53C415.93,1567.46 415.53,1567.41 415.13,1567.37L415.08,1567.37C414.67,1567.34 414.26,1567.32 413.84,1567.32C413.42,1567.32 413,1567.34 412.58,1567.37C412.16,1567.41 411.74,1567.46 411.32,1567.53C410.91,1567.6 410.49,1567.69 410.07,1567.79C409.66,1567.89 409.24,1568.02 408.83,1568.15C408.42,1568.29 408.01,1568.45 407.6,1568.62C407.19,1568.79 406.78,1568.98 406.37,1569.18C405.96,1569.39 405.56,1569.61 405.15,1569.85C404.75,1570.08 404.35,1570.34 403.94,1570.61C403.54,1570.88 403.14,1571.16 402.74,1571.46C402.35,1571.77 401.95,1572.08 401.55,1572.42C401.16,1572.75 400.77,1573.1 400.37,1573.46C399.98,1573.82 399.59,1574.2 399.21,1574.6C398.82,1574.99 398.43,1575.4 398.05,1575.83C397.66,1576.25 397.28,1576.69 396.9,1577.14C396.52,1577.6 396.14,1578.07 395.76,1578.55C395.39,1579.03 395.01,1579.53 394.64,1580.04C394.27,1580.56 393.9,1581.08 393.53,1581.62C393.16,1582.16 392.8,1582.72 392.43,1583.29C392.07,1583.85 391.71,1584.44 391.35,1585.03C390.99,1585.63 390.63,1586.24 390.28,1586.86C389.92,1587.49 389.57,1588.12 389.22,1588.77C388.87,1589.42 388.52,1590.08 388.18,1590.76C387.83,1591.44 387.49,1592.13 387.15,1592.83C386.81,1593.53 386.47,1594.25 386.14,1594.97C385.8,1595.7 385.47,1596.44 385.14,1597.19C384.81,1597.95 384.49,1598.71 384.16,1599.49C383.84,1600.27 383.52,1601.05 383.2,1601.86C382.88,1602.66 382.56,1603.47 382.25,1604.3C381.94,1605.12 381.63,1605.96 381.32,1606.81C381.02,1607.65 380.71,1608.51 380.41,1609.39C380.11,1610.26 379.81,1611.14 379.52,1612.03C379.22,1612.93 378.93,1613.83 378.64,1614.75C378.35,1615.66 378.07,1616.59 377.79,1617.53C377.5,1618.46 377.22,1619.41 376.95,1620.37C376.67,1621.33 376.4,1622.3 376.13,1623.28C375.86,1624.26 375.6,1625.25 375.34,1626.25C375.07,1627.25 374.81,1628.26 374.56,1629.28C374.3,1630.29 374.05,1631.32 373.8,1632.36C373.55,1633.4 373.31,1634.45 373.07,1635.51C372.83,1636.57 372.59,1637.64 372.36,1638.71C372.12,1639.79 371.89,1640.88 371.67,1641.97C371.44,1643.07 371.22,1644.17 371,1645.28C370.78,1646.4 370.56,1647.52 370.35,1648.65C370.14,1649.78 369.93,1650.92 369.73,1652.06C369.53,1653.21 369.33,1654.37 369.13,1655.53C368.94,1656.69 368.75,1657.87 368.56,1659.05C368.37,1660.23 368.19,1661.41 368.01,1662.61C367.83,1663.81 367.66,1665.01 367.49,1666.22C367.32,1667.43 367.15,1668.65 366.99,1669.87C366.83,1671.1 366.67,1672.33 366.51,1673.57C366.36,1674.81 366.21,1676.06 366.07,1677.31C365.92,1678.57 365.78,1679.83 365.65,1681.1C365.51,1682.36 365.38,1683.64 365.25,1684.92C365.13,1686.2 365,1687.49 364.89,1688.78C364.77,1690.07 364.66,1691.37 364.55,1692.68C364.44,1693.99 364.34,1695.3 364.24,1696.62C364.14,1697.93 364.05,1699.26 363.96,1700.59C363.87,1701.91 363.78,1703.25 363.7,1704.59C363.62,1705.93 363.55,1707.28 363.48,1708.63C363.41,1709.98 363.35,1711.33 363.29,1712.69C363.23,1714.05 363.17,1715.42 363.12,1716.79C363.07,1718.16 363.03,1719.54 362.99,1720.92C362.95,1722.3 362.92,1723.68 362.89,1725.07C362.86,1726.46 362.83,1727.85 362.82,1729.25C362.8,1730.49 362.79,1731.74 362.78,1732.97L362.78,1733.74C362.77,1734.93 362.77,1736.12 362.77,1737.31L362.77,1737.95C362.78,1739.19 362.78,1740.43 362.79,1741.66L362.8,1741.85C362.81,1743.05 362.83,1744.24 362.85,1745.43L362.86,1746.01C362.88,1747.18 362.9,1748.34 362.93,1749.5L362.95,1750.3C362.98,1751.46 363.01,1752.62 363.05,1753.77L363.07,1754.28C363.11,1755.35 363.14,1756.42 363.19,1757.48L363.21,1758.1C363.26,1759.25 363.31,1760.39 363.37,1761.53L363.4,1762.23C363.46,1763.39 363.52,1764.53 363.58,1765.67L363.61,1766.14C363.67,1767.19 363.73,1768.24 363.8,1769.29L363.84,1769.89C363.91,1770.98 363.98,1772.06 364.06,1773.14L364.12,1773.94C364.2,1775.01 364.28,1776.08 364.36,1777.15L364.42,1777.87C364.5,1778.86 364.59,1779.84 364.67,1780.82L364.72,1781.34C364.81,1782.36 364.9,1783.37 365,1784.38L365.09,1785.3C365.19,1786.29 365.29,1787.28 365.39,1788.26L365.49,1789.17C365.59,1790.1 365.69,1791.02 365.79,1791.94L365.88,1792.72C365.98,1793.59 366.09,1794.46 366.19,1795.32L366.3,1796.24C366.42,1797.17 366.54,1798.1 366.66,1799.02L366.79,1800C366.91,1800.91 367.04,1801.81 367.16,1802.71L367.28,1803.53C367.39,1804.3 367.5,1805.07 367.62,1805.83L367.75,1806.75C367.89,1807.64 368.02,1808.52 368.16,1809.39L368.32,1810.36C368.46,1811.23 368.6,1812.1 368.75,1812.97L368.89,1813.79C369.01,1814.49 369.13,1815.18 369.26,1815.87C369.32,1816.2 369.37,1816.52 369.43,1816.84C369.58,1817.65 369.72,1818.44 369.88,1819.23L370.07,1820.28C370.23,1821.09 370.39,1821.88 370.54,1822.68C370.61,1823 370.68,1823.32 370.74,1823.64C370.87,1824.25 370.99,1824.86 371.12,1825.46L371.36,1826.6C371.51,1827.29 371.66,1827.97 371.81,1828.66L372.03,1829.67C372.2,1830.41 372.37,1831.15 372.54,1831.88L372.78,1832.86C372.91,1833.44 373.05,1834.02 373.19,1834.59C373.3,1835 373.4,1835.42 373.5,1835.83C373.65,1836.4 373.79,1836.97 373.94,1837.53L374.19,1838.52C374.37,1839.2 374.55,1839.87 374.73,1840.54C374.83,1840.89 374.93,1841.24 375.02,1841.59C375.16,1842.08 375.3,1842.57 375.44,1843.06C375.57,1843.52 375.7,1843.98 375.84,1844.44C375.97,1844.91 376.11,1845.38 376.25,1845.85C376.35,1846.17 376.45,1846.49 376.54,1846.81C376.73,1847.43 376.93,1848.05 377.12,1848.66C377.22,1848.98 377.33,1849.31 377.43,1849.63C377.6,1850.14 377.76,1850.64 377.92,1851.14C378.06,1851.54 378.19,1851.95 378.33,1852.35C378.47,1852.76 378.61,1853.18 378.76,1853.59C378.86,1853.89 378.96,1854.18 379.07,1854.48C379.27,1855.05 379.48,1855.62 379.68,1856.18C379.8,1856.49 379.91,1856.79 380.02,1857.09C380.22,1857.61 380.41,1858.12 380.61,1858.63C388.52,1879.06 398.55,1891.18 409.59,1891.18C415.3,1891.18 420.82,1887.93 426,1881.97C407.72,1867.65 393.93,1818.68 390.93,1756.9C395.6,1818.51 408.59,1863.04 428.43,1878.93C437.55,1866.66 445.43,1845.85 451.12,1819.55C451.01,1820.05 450.91,1820.54 450.8,1821.03C444.46,1812.22 438.88,1804.59 437.87,1792.69C436.94,1781.82 438.52,1770.85 444.03,1759.83C445.66,1775.78 448.58,1781.78 456.63,1787.18C455.3,1797.48 453.67,1807.27 451.78,1816.43C456.18,1795.14 459.15,1770.45 460.22,1743.91C460.12,1746.45 460,1748.96 459.86,1751.45C453.35,1750.33 451.15,1748.77 444.58,1743.71C445.79,1740.16 446.54,1735.17 446.54,1729.64C446.54,1725.83 446.19,1722.28 445.57,1719.28C451,1721 455.33,1721.16 460.66,1720.29L460.66,1720.84C460.61,1700.06 459.37,1680.31 457.13,1662.32ZM413.43,1546.24C404.81,1546.24 397.68,1553.36 392.88,1559.8C389.08,1564.9 385.93,1570.62 383.22,1576.37C379.85,1583.53 377.04,1591.01 374.61,1598.54C368.55,1617.31 364.54,1637.11 361.72,1656.61C360.37,1666.01 359.28,1675.45 358.45,1684.93C359.24,1676.51 360.23,1668.13 361.43,1659.78C364.25,1640.29 368.26,1620.49 374.32,1601.72C376.75,1594.19 379.56,1586.71 382.93,1579.54C385.64,1573.8 388.79,1568.07 392.59,1562.97C397.39,1556.54 404.52,1549.42 413.14,1549.42C421.72,1549.42 428.64,1556.47 433.29,1562.94C436.95,1568.04 439.94,1573.77 442.49,1579.5C445.68,1586.67 448.28,1594.15 450.5,1601.67C456.07,1620.47 459.54,1640.27 461.83,1659.73C464.6,1683.32 465.64,1707.23 465.32,1730.98C465.13,1745.29 464.44,1759.64 463.18,1773.92C464.62,1758.59 465.4,1743.17 465.61,1727.8C465.93,1704.05 464.89,1680.14 462.12,1656.55C459.83,1637.1 456.35,1617.29 450.79,1598.49C448.57,1590.97 445.97,1583.49 442.78,1576.32C440.23,1570.59 437.24,1564.87 433.57,1559.77C428.93,1553.29 422.01,1546.24 413.43,1546.24ZM466.77,1850.33C468.92,1840.07 470.75,1829.75 472.34,1819.4C477.53,1785.49 480.14,1751.16 480.8,1716.87C481.39,1685.46 480.34,1653.96 477.14,1622.7C475.74,1608.96 473.92,1595.25 471.55,1581.64C469.45,1569.64 466.94,1557.71 463.79,1545.93C461.13,1535.99 458.03,1526.13 454.17,1516.58C451.09,1508.99 447.51,1501.46 443,1494.61C437.56,1486.34 429.04,1476.59 418.27,1476.59C408.01,1476.59 399.48,1485.45 393.87,1493.15C389.62,1498.97 386.09,1505.36 382.99,1511.86C389.21,1504.11 397.55,1497.06 407.68,1497.06C420.32,1497.06 429.87,1508.05 436.06,1517.89C440.7,1525.27 444.37,1533.33 447.52,1541.45C451.42,1551.53 454.54,1561.92 457.22,1572.38C460.37,1584.71 462.89,1597.2 464.98,1609.75C467.35,1623.95 469.16,1638.25 470.56,1652.57C473.74,1685.13 474.79,1717.91 474.2,1750.61C473.71,1777.59 472.08,1804.55 469.11,1831.37C468.41,1837.7 467.63,1844.02 466.77,1850.33ZM434.18,1710.17C437.72,1710.17 440.59,1718.91 440.59,1729.7C440.59,1740.48 437.72,1749.23 434.18,1749.23C431.21,1749.23 428.71,1743.08 427.98,1734.73C424.54,1735.17 421.45,1736.28 418.61,1737.85L418.61,1738.34C418.41,1751.26 418.85,1764.4 420.1,1777.42C420.68,1769.13 424.25,1762.31 434.32,1758.79C436.32,1758.09 438.57,1757.54 441.07,1757.16C437.58,1760.54 427.13,1769.7 424.36,1806.39C425.62,1812.61 427.12,1818.83 428.97,1824.92C426.64,1818.53 424.86,1812.11 423.56,1806.64C420.9,1795.5 419.13,1784.09 417.99,1772.71C416.88,1761.6 416.36,1750.4 416.36,1739.23C415.9,1739.54 415.44,1739.85 415,1740.18C412.55,1732.49 410.7,1712.96 415,1692.95C416.12,1696.15 417.2,1699.11 418.3,1701.81C418.61,1698.92 418.96,1696.04 419.34,1693.16C420.23,1686.55 421.33,1679.94 422.7,1673.39C418.54,1660.36 427.26,1643.97 433.94,1628.38C433.17,1633.01 432.56,1637.3 432.12,1641.26C435.72,1632.31 440.45,1623.34 446.39,1617.4C446.67,1618.41 446.94,1619.42 447.21,1620.43C442.74,1626 439.2,1632.67 436.37,1639.17C434.41,1643.66 432.69,1648.29 431.17,1652.99C430.15,1676.02 435.2,1684.68 437.13,1688.34C434.81,1687.22 432.78,1686 431.03,1684.67C428.28,1682.59 426.24,1680.32 424.76,1677.9C423.27,1685.29 422.1,1692.74 421.18,1700.2C420.92,1702.36 420.67,1704.52 420.45,1706.69C422.86,1711.66 425.53,1715.44 429.08,1717.87C430.25,1713.19 432.1,1710.17 434.18,1710.17ZM457.34,1824.79C446.52,1875.08 428.52,1908.32 408.56,1908.32C378.86,1908.32 355.48,1834.72 354.18,1740.86C356.3,1833.13 379.6,1904.71 409.04,1904.71C428.61,1904.71 446.31,1873.08 457.34,1824.79ZM428.02,1879.48C427.77,1879.81 427.51,1880.14 427.26,1880.45C427.51,1880.14 427.77,1879.81 428.02,1879.48ZM426.92,1880.88C426.63,1881.24 426.33,1881.58 426.04,1881.92C426.33,1881.58 426.63,1881.24 426.92,1880.88ZM433.4,1713.75C436.09,1713.75 438.26,1720.89 438.26,1729.7C438.26,1738.51 436.09,1745.65 433.4,1745.65C430.72,1745.65 428.54,1738.51 428.54,1729.7C428.54,1720.89 430.72,1713.75 433.4,1713.75ZM451.73,1816.7C451.6,1817.32 451.47,1817.94 451.33,1818.56C451.47,1817.94 451.6,1817.32 451.73,1816.7ZM456.51,1657.51C456.58,1658.09 456.66,1658.67 456.74,1659.24C456.66,1658.67 456.58,1658.09 456.51,1657.51ZM456.84,1660C456.91,1660.58 456.99,1661.16 457.06,1661.74C456.99,1661.16 456.91,1660.58 456.84,1660ZM655.78,1533.19C662.6,1546.26 670.84,1561.57 681.45,1581.34C669.72,1563.39 660.37,1548.93 652.53,1536.33L652.9,1535.97C653.86,1535.03 654.81,1534.11 655.78,1533.19ZM25.63,1557.99C28.94,1587.76 33.78,1644.27 33.84,1685.34C33.91,1726.89 28.24,1794.99 29.05,1791.47C35.52,1763.3 37.24,1711.98 37.68,1687.22C38.38,1647.41 31.81,1575.48 25.63,1557.99ZM0.43,1785.51C0.23,1786.79 0.03,1788.06 -0.18,1789.31L-0.19,1789.31C-1.69,1798.25 -3.39,1806.39 -5.24,1813.6L-5.24,1813.59C-10.89,1835.51 -18.01,1848.69 -25.66,1848.69C-42.75,1848.69 -56.1,1782.79 -55.9,1700.58C-54.28,1773.09 -39.74,1829.03 -21.44,1829.03C-16.21,1829.03 -11.19,1824.44 -6.62,1816.22C-8.65,1818.46 -10.75,1819.65 -12.91,1819.65C-27.6,1819.65 -39.02,1764.31 -38.4,1696.04C-37.79,1627.77 -25.38,1572.42 -10.68,1572.42C-8.2,1572.42 -5.8,1574.01 -3.54,1576.99C-1.7,1584.42 -0.05,1592.91 1.37,1602.27C0.4,1599.49 -0.69,1596.93 -2.04,1594.29L-2.37,1593.63C-4.97,1588.89 -7.81,1586.29 -10.81,1586.29C-23.86,1586.29 -34.87,1635.43 -35.42,1696.04C-35.96,1756.65 -25.83,1805.79 -12.78,1805.79C-12.65,1805.78 -12.51,1805.78 -12.37,1805.77C-17.25,1797.91 -30.91,1735.07 -23.82,1690.27C-25.8,1721.76 -23.2,1772.36 -7.32,1802.85C-6.14,1801.57 -5,1799.91 -3.89,1797.87C-3.41,1796.98 -2.64,1795.25 -1.8,1793.25C-10.83,1765.57 -17.31,1713.2 -11.25,1668.97C-10.79,1680.41 -15.06,1728.85 0.43,1785.51ZM-5.17,1604.92C-13.23,1645.27 -15.39,1679.19 -15.63,1706.06C-15.72,1716.89 -15.48,1727.35 -14.94,1737.23C-15.95,1724.4 -16.45,1710.37 -16.32,1695.66C-15.98,1657.94 -11.59,1624.67 -5.17,1604.92ZM4.65,1629.65C4.84,1631.78 5.02,1633.93 5.2,1636.11C-0.27,1645.07 -4.21,1670.61 -4.21,1700.72C-4.21,1723.09 -2.04,1742.95 1.33,1755.35C-3.03,1748.08 -6.24,1723.15 -6.24,1693.49C-6.24,1658.15 -1.68,1629.5 3.95,1629.5C4.18,1629.5 4.42,1629.55 4.65,1629.65ZM6.98,1670.52C7.09,1674.75 7.16,1679.04 7.2,1683.38C6.32,1678.96 5,1676.16 3.53,1676.16C1,1676.16 -1.07,1684.45 -1.27,1694.99C-1.08,1680.69 1.7,1669.34 5.11,1669.34C5.76,1669.35 6.39,1669.75 6.98,1670.52ZM6.91,1711.24C6.79,1715.26 6.64,1719.22 6.46,1723.14C6.03,1723.54 5.58,1723.74 5.11,1723.75C1.77,1723.75 -0.98,1712.83 -1.26,1698.92C-0.99,1709.16 1.05,1717.14 3.53,1717.14C4.85,1717.14 6.04,1714.89 6.91,1711.24ZM-18.99,1519.58C-5.74,1519.58 4.5,1565.75 6.6,1628.56C1.85,1578.65 -8.53,1544.4 -20.85,1544.4C-31.46,1544.4 -41.06,1569.76 -47.11,1608.64C-41.65,1556.22 -30.79,1519.58 -18.99,1519.58ZM-2.87,1579.97C-2.77,1580.44 -2.66,1580.9 -2.56,1581.38C-4.59,1578.28 -6.66,1576.25 -10.33,1576.25C-15.3,1576.25 -20.95,1583.75 -27.09,1602.41C-22.85,1584.63 -17.09,1573.6 -10.84,1573.6C-8.01,1573.6 -5.33,1575.86 -2.87,1579.97ZM-11.77,1505.12C-11.64,1504.97 -11.55,1504.84 -11.49,1504.74C-9.74,1501.1 -6.46,1497.03 -2.64,1499.58C6.37,1505.6 16.93,1553.12 16.72,1605.79C12.96,1542 0.15,1492.16 -11.77,1505.12ZM15.46,1492.23C16.71,1492.2 17.7,1492.18 18.32,1492.18C19.38,1492.16 20.44,1492.16 21.49,1492.16C50.35,1525.42 51.91,1686.91 49.57,1740.84C50.42,1695.14 45.63,1508.76 15.46,1492.23ZM33.64,1492.42C34.21,1492.45 34.78,1492.47 35.35,1492.5C36.47,1492.56 37.86,1492.64 39.46,1492.74C56.55,1515.29 69.19,1595.42 69.19,1690.84C69.19,1707.53 68.8,1723.75 68.07,1739.29C68.36,1725.22 68.38,1710.62 68.11,1695.64C66.24,1593.11 51.36,1508.12 33.64,1492.42ZM52.07,1493.77C54.17,1493.97 56.29,1494.19 58.38,1494.43C89.11,1534.82 91.11,1682.53 88.22,1740.25C88.52,1726.18 88.55,1711.58 88.26,1696.6C86.28,1594.87 70.71,1510.41 52.07,1493.77ZM72.12,1496.54C73.51,1496.85 74.67,1497.17 75.6,1497.5C96.73,1534.2 105.31,1637.01 105.31,1690.8C105.31,1748.5 104.91,1723.71 104.15,1739.24C104.44,1725.17 104.46,1710.57 104.18,1695.6C102.37,1600.07 88.84,1519.76 72.12,1496.54ZM253.81,1599.88C269.6,1599.05 282.35,1599.97 282.28,1601.93C282.21,1603.88 269.34,1606.13 253.54,1606.96C237.74,1607.78 224.99,1606.86 225.07,1604.91C225.14,1602.95 238.01,1600.7 253.81,1599.88ZM320.86,1716.66L320.65,1716.68L320.85,1716.9L320.86,1716.66ZM799.41,1880.34C800.6,1881.81 801.33,1883.34 801.7,1885.82L822.81,1841.05L799.41,1880.34ZM1434.15,1482.8C1434.84,1482.78 1435.54,1482.76 1436.23,1482.74C1504.82,1494.59 1559.44,1595.07 1560.85,1717.29C1561.43,1768.25 1552.68,1815.42 1537.33,1853.97C1551.59,1815.57 1559.38,1768.94 1558.19,1718.67C1555.31,1597.49 1501.27,1497.52 1434.15,1482.8ZM1185.93,1780.93C1172.49,1796.12 1174.14,1834.94 1189.56,1848.65C1208.26,1865.27 1276.63,1864.8 1300,1863.92C1319.86,1863.16 1385.32,1859.14 1430.18,1852.03C1451.97,1848.58 1469.57,1847.52 1483.41,1828.84C1483.74,1828.39 1484.08,1827.94 1484.41,1827.47C1470.75,1844.69 1453.52,1845.79 1432.35,1849.14C1387.49,1856.25 1323.11,1859.7 1303.25,1860.45C1279.88,1861.33 1211.51,1861.81 1192.81,1845.18C1184.05,1837.39 1179.53,1820.82 1180.06,1808.71C1180.48,1799.25 1181.02,1788.67 1185.93,1780.93ZM603.15,1848.08L671.03,1859.86L637.05,1858.47L783.12,1883.9L600.47,1859.03C601.41,1855.56 602.3,1851.9 603.15,1848.08ZM731.13,1690.55C730.9,1685.81 730.3,1682.1 729.84,1679.66C710.85,1671.42 691.92,1663.09 673,1654.74C672.72,1655.14 672.44,1655.51 672.16,1655.84L666.41,1653.47L665.34,1654.91L653.59,1650.07L654.05,1648.39L632.77,1639.64L631.47,1641.29L624.06,1638.24L624.27,1636.67L613.71,1628.89C613.62,1629.39 613.52,1629.88 613.4,1630.37C612.31,1635 611.73,1636.78 609.36,1638.83C609.47,1639.8 609.59,1640.77 609.7,1641.75C646.43,1656.73 703.22,1679.42 731.13,1690.55ZM890.34,1833.79C888.97,1831.94 888.53,1828.47 888.18,1826.57C886.28,1816.2 885.07,1797.37 884.81,1793.24C883.72,1775.87 885.04,1753.13 889.84,1733.35C891.38,1726.98 895.18,1712.55 899.99,1708.36C901.99,1706.63 904.01,1705.72 906.17,1705.46C902.88,1705.1 899.96,1705.88 897.11,1708.36C893.16,1711.79 889.29,1726.55 887.98,1731.96C883.18,1751.74 881.86,1774.47 882.95,1791.84C883.4,1799.08 884.76,1830.82 890.34,1833.79ZM891.31,1834.23C896.54,1837.43 910.22,1836.05 919.26,1834.53C925.03,1833.56 926.69,1833.67 931.44,1829.76C934.16,1827.52 936.16,1825.88 939.15,1824.03C950.92,1816.76 971.24,1807.32 982.46,1803.82C985.34,1802.92 987.25,1802.26 988.52,1801.12L988.53,1801.11C988.69,1800.96 988.85,1800.8 989,1800.63L989.01,1800.62C989.1,1800.51 989.2,1800.39 989.28,1800.27L989.29,1800.26C989.37,1800.14 989.46,1800.02 989.53,1799.89L989.55,1799.86C989.63,1799.73 989.7,1799.6 989.77,1799.46L989.78,1799.44C989.92,1799.15 990.05,1798.83 990.17,1798.49C990.2,1798.4 990.22,1798.32 990.25,1798.23L990.25,1798.21C990.36,1797.86 990.46,1797.47 990.54,1797.05L990.54,1797.03C990.58,1796.82 990.62,1796.61 990.66,1796.38L990.66,1796.36L990.71,1796.04L990.71,1796.01L990.75,1795.73C991.38,1790.87 991.08,1782.37 991.7,1766.33C991.79,1764.09 991.17,1762.31 989.4,1760.73C979.54,1751.93 966.14,1747.12 956.56,1739.46C951.4,1735.34 945.23,1726.16 940.26,1720.63C939.36,1719.64 938.36,1718.74 937.26,1717.94C933.12,1714.9 927.69,1712.69 923.09,1710.36C915.77,1706.64 910.27,1704.12 905.42,1705.01C909.8,1704.98 914.79,1707.31 921.15,1710.53C925.75,1712.87 931.18,1715.08 935.31,1718.11C936.41,1718.91 937.41,1719.81 938.32,1720.81C943.29,1726.33 949.45,1735.51 954.61,1739.64C964.2,1747.3 977.6,1752.11 987.45,1760.9C989.22,1762.48 989.85,1764.27 989.76,1766.51C989.04,1785.04 989.55,1793.51 988.44,1797.91L988.41,1798.31C987.14,1799.1 985.41,1799.68 983.06,1800.41C971.37,1804.06 950.19,1814.77 937.92,1822.35C934.81,1824.27 932.73,1825.98 929.89,1828.32C924.94,1832.39 923.21,1832.28 917.2,1833.29C909.28,1834.62 897.96,1835.85 891.31,1834.23ZM904.71,1830.22C901.47,1815.57 904.47,1727.5 911.68,1719.6C912.58,1718.61 913.37,1718.01 914.18,1717.69C913.56,1717.61 913.05,1717.62 912.66,1717.72C911.7,1717.99 910.8,1718.62 909.74,1719.78C902.51,1727.69 899.51,1816.02 902.78,1830.46C903.44,1830.39 904.08,1830.3 904.71,1830.22ZM1524.6,1802.1C1505.58,1883.39 1459.9,1940.36 1405.91,1940.36C1383.56,1940.36 1362.41,1930.59 1343.81,1913.38C1361.3,1926.26 1380.62,1933.43 1400.88,1933.43C1456.34,1933.43 1503.51,1879.67 1524.6,1802.1ZM1474.42,1842.18C1485.95,1835.27 1498.42,1818.74 1503.73,1806.14C1508.01,1796 1512.1,1776.24 1504.37,1766.65C1510.84,1781.07 1503.32,1802.12 1496,1814.97C1490.47,1824.7 1483.52,1835.48 1474.42,1842.18ZM1478.89,1483.26C1480.14,1483.44 1481.39,1483.64 1482.64,1483.87C1490.33,1487.09 1497.62,1491.27 1504.43,1496.12C1521.16,1508.03 1535.1,1523.94 1546.36,1540.7C1560.62,1561.92 1571.4,1585.66 1579.26,1609.75C1588.26,1637.33 1593.68,1666.13 1595.89,1694.96C1596.81,1706.95 1597.17,1718.96 1596.95,1730.99C1596.74,1742.49 1595.99,1753.98 1594.66,1765.41C1594.07,1770.58 1593.35,1775.74 1592.5,1780.89C1593.2,1775.96 1593.79,1771.02 1594.28,1766.08C1596.54,1742.93 1596.48,1719.52 1594.41,1696.35C1591.86,1667.9 1586.25,1639.52 1577.26,1612.3C1569.34,1588.35 1558.66,1564.78 1544.68,1543.51C1532.99,1525.72 1518.42,1508.72 1500.9,1495.99C1494.03,1491 1486.67,1486.65 1478.89,1483.26ZM1458.57,1483.18C1471.12,1487.38 1482.63,1494.35 1492.89,1502.87C1509.77,1516.89 1523.49,1535.18 1534.31,1554.17C1547.24,1576.87 1556.77,1601.8 1563.51,1627C1571.16,1655.63 1575.39,1685.31 1576.55,1714.92C1577.5,1739.03 1576.42,1763.29 1573.03,1787.18C1572.31,1792.28 1571.48,1797.37 1570.54,1802.45C1571.63,1797.15 1572.6,1791.84 1573.45,1786.51C1575.33,1774.72 1576.64,1762.85 1577.41,1750.94C1578.21,1738.49 1578.43,1726.01 1578.1,1713.54C1577.29,1683.56 1573.28,1653.46 1565.63,1624.44C1558.95,1599.11 1549.34,1574 1536.12,1551.33C1525.69,1533.44 1512.53,1516.3 1496.41,1503.17C1485.19,1494.04 1472.48,1486.85 1458.57,1483.18ZM1251.15,1599.5L1245.12,1625.32C1246.03,1625.62 1247.17,1626 1248.39,1626.41C1250.72,1613.46 1254.2,1596.19 1256.49,1588.44C1257.13,1586.3 1259.25,1580.73 1260.1,1578.41C1254.98,1584.63 1253.1,1591.8 1251.15,1599.5ZM1285.75,1572.6C1282.65,1571.62 1279.41,1570.97 1276.37,1571.23C1267.1,1572.04 1262.74,1578.49 1258.82,1587.07C1261.4,1572.12 1271.81,1565.92 1285.75,1572.6ZM1317.79,1651.33L1329.13,1645.6L1330.11,1645.1L1330.7,1644.81C1331.77,1645.03 1332.44,1645.55 1332.94,1646.03C1331.61,1646.72 1326.21,1649.55 1320.71,1652.43L1317.79,1651.33ZM1443.29,1869.83C1429.98,1885.95 1413.82,1895.29 1396.06,1895.29C1390.71,1895.29 1385.44,1894.44 1380.28,1892.82C1402.33,1886.28 1423.42,1878.66 1443.29,1869.83ZM235.66,1624.84C235.64,1624.84 239.26,1625.04 239.73,1631.5C243.23,1631.55 247.13,1631.67 250.64,1631.72C251.68,1628.7 252.42,1627.8 254.75,1625.47C248.2,1624.39 242.16,1624.35 235.66,1624.84ZM566.62,1501.69C574.21,1505.28 585.58,1501.93 590.84,1495.62C597.76,1487.33 606.58,1462.88 618.52,1481.23L621,1485.97L620.6,1483.34L619.95,1460.16C619.26,1460.07 618.59,1459.98 617.92,1459.9L617.78,1479.51C610.7,1469.58 604.73,1474.56 599.62,1481.79L599.77,1459.41L599.35,1459.43C598.37,1459.48 597.4,1459.54 596.43,1459.6L595.78,1485.72C595.71,1486.67 595.17,1488.6 594.52,1489.71L594.5,1459.75C593.89,1459.8 593.28,1459.86 592.68,1459.92C592.87,1469.7 594.61,1492.26 586.82,1497.96L586.82,1460.58C586.33,1460.64 585.84,1460.71 585.35,1460.77L585.35,1498.64C565.4,1510.79 556.77,1483.89 559.06,1466.39C558.61,1466.73 558.24,1467.18 558.03,1467.77C557.55,1469.08 557.76,1485.52 557.84,1490.77C558.9,1492.31 559.95,1493.9 560.99,1495.56C561.84,1496.92 562.68,1498.32 563.52,1499.75C564.41,1500.51 565.45,1501.16 566.62,1501.69ZM519.09,1445.38C521.26,1445.38 522.9,1448.19 522.74,1451.65C522.59,1455.11 520.69,1457.92 518.52,1457.92C516.34,1457.92 514.7,1455.11 514.86,1451.65C515.02,1448.19 516.91,1445.38 519.09,1445.38ZM507.71,1441.81C509.53,1441.81 510.85,1444.62 510.66,1448.07C510.46,1451.53 508.83,1454.33 507,1454.33C505.18,1454.33 503.86,1451.53 504.06,1448.07C504.25,1444.62 505.89,1441.81 507.71,1441.81ZM608.24,1490.27C606.99,1494.75 606.13,1497.9 605.83,1500.09C608.98,1498.81 612.14,1497.55 615.29,1496.31C614.15,1491.9 612.63,1487.37 611.05,1487.04C609.61,1486.73 608.84,1488.09 608.24,1490.27ZM621.93,1487.75L623.47,1490.68L624.79,1490.19L624.79,1460.97C623.83,1460.79 622.87,1460.62 621.93,1460.46L621.93,1487.75ZM648.92,1482.16L648.79,1469.84C644.5,1467.01 639.16,1464.8 633.7,1463.16L633.7,1487C638.72,1485.26 643.8,1483.6 648.92,1482.16ZM664.48,1443.1C663.29,1442.01 661.82,1441.08 660.37,1440.16C658.05,1438.7 655.69,1437.39 653.29,1436.22L653.24,1443.37C657.79,1445.51 661.81,1448.08 664.42,1450.94L664.48,1443.1ZM653.14,1458.3C656.63,1459.9 660.3,1461.97 663,1464.78C663.5,1465.31 663.94,1465.84 664.3,1466.37L664.4,1454.12C661.7,1451.34 657.7,1448.79 653.21,1446.62L653.14,1458.3ZM559.58,1439.91L559.58,1431.48C559.33,1431.54 559.08,1431.6 558.84,1431.66C551.22,1433.5 542.15,1436.11 536.44,1438.91L536.35,1447.32C542.06,1444.55 551.04,1441.97 558.59,1440.14C558.92,1440.07 559.24,1439.99 559.58,1439.91ZM654.3,1428.9C655.98,1432 657.06,1434.49 657.79,1436.81C644.08,1428.92 628.7,1426.13 612.95,1425.45C594.71,1424.66 574.33,1426.38 558.84,1430.13C557.43,1430.47 555.99,1430.83 554.51,1431.22C577.92,1419.72 612.25,1416.24 635.54,1421.18C631.41,1407.95 618.38,1393.73 599.13,1386.49C620.26,1391.02 637.51,1406.03 652.35,1427.52C653.04,1427.96 653.69,1428.42 654.3,1428.9ZM539.51,1375.27C545.72,1376.25 551.79,1378.19 557.2,1381.19C558.96,1382.16 560.37,1383.07 561.55,1383.96C560.59,1384.18 559.63,1384.42 558.69,1384.67C554.2,1381.68 545.5,1375.31 529.74,1375.1C532.78,1374.88 536.13,1374.93 539.51,1375.27ZM1089.59,1733.32C1132.96,1741.89 1229.27,1754.46 1277.81,1751.01C1207.82,1756.69 1142.36,1751.96 1089.59,1733.32ZM699.38,1708.5C696.14,1706.49 692.04,1702.65 690.75,1698.71L645.3,1673.7L612.61,1674.51C613.45,1687.21 613.99,1700.4 614.21,1713.93C614.33,1721.91 614.34,1729.76 614.24,1737.48C632.92,1737.84 651.94,1737.79 670.33,1737.35C674.3,1737.26 678.3,1737.19 682.26,1737.01C684.06,1736.93 687.49,1736.67 687.52,1736.79C688.32,1740.39 691.03,1740.76 692.06,1736.61C692.06,1736.61 694.05,1736.55 695,1736.52C695.07,1737.86 695.18,1739.5 695.34,1741.38C668.02,1742.63 640.61,1743.75 614.16,1742.04C614.14,1743.19 614.12,1744.33 614.09,1745.47C637.15,1745.33 668.52,1744.7 695.52,1743.39L695.6,1744.24C696.3,1744.26 696.83,1745.52 696.79,1747.05C696.76,1748.01 696.51,1748.86 696.16,1749.35C697.47,1760.15 699.92,1774.23 704.1,1785.34C698.83,1763.38 698.47,1752.17 698.59,1743.91C698.06,1733.06 698.34,1721.4 699.38,1708.5ZM695.25,1722.13C695.95,1722.16 696.47,1723.42 696.42,1724.95C696.37,1726.49 695.77,1727.72 695.07,1727.69C694.37,1727.67 693.85,1726.41 693.9,1724.87C693.95,1723.34 694.55,1722.11 695.25,1722.13ZM692.18,1711.89C692.88,1711.97 693.3,1713.27 693.13,1714.8C692.96,1716.32 692.26,1717.5 691.57,1717.42C690.87,1717.34 690.45,1716.04 690.62,1714.52C690.79,1712.99 691.49,1711.82 692.18,1711.89ZM697.16,1663.76L673.47,1654.02C673.4,1654.15 673.32,1654.27 673.24,1654.38L696.97,1664.67L697.16,1663.76ZM711.76,1710.27C708.25,1710.23 705.17,1710.08 702.93,1709.72C701.6,1718.91 700.94,1727.72 700.91,1736.25C718.28,1735.42 732.73,1734.3 746.99,1732.74C747.26,1729.23 747.55,1725.57 747.83,1721.74C748.17,1716.98 748.18,1713.19 747.45,1712.22C745.95,1710.21 741.3,1710.37 735.5,1710.2C733.16,1710.13 711.81,1710.29 711.76,1710.27ZM690.05,1733.4C690.75,1733.42 691.27,1734.69 691.22,1736.22C691.17,1737.76 690.57,1738.98 689.87,1738.96C689.17,1738.94 688.65,1737.67 688.7,1736.14C688.75,1734.61 689.35,1733.38 690.05,1733.4ZM701.02,1743.11C717.47,1742.23 731.88,1741.09 741.14,1739.63C727.87,1739.89 714.43,1740.5 700.96,1741.12C700.97,1741.78 701,1742.45 701.02,1743.11ZM634.18,1667.58L611.05,1654.86C611.46,1659.21 611.83,1663.64 612.16,1668.14L634.18,1667.58ZM803.19,1644.11C802.96,1642.58 802.53,1641.07 801.88,1639.59C801.37,1638.42 800.75,1637.51 800.05,1636.79C801.58,1636.77 803.06,1636.76 804.49,1636.77C804.66,1636.98 804.83,1637.22 805.01,1637.47C806.27,1639.31 807.07,1641.36 807.51,1643.54C806.19,1643.72 804.75,1643.91 803.19,1644.11ZM800.05,1636.79C788.97,1636.98 775.74,1638.05 767.54,1639.4C765.8,1638.75 764.3,1638.94 764.44,1638.91C768.82,1638.03 772.96,1637.51 777.4,1637.16C785.04,1636.56 792.7,1636.32 799.46,1636.25C799.66,1636.42 799.86,1636.6 800.05,1636.79ZM799.46,1636.25C797.14,1634.31 794.13,1634.18 791.41,1634.1C792.52,1634.07 796.25,1633.74 799.47,1634.2C801.75,1634.53 802.88,1634.92 804.05,1636.23C802.57,1636.23 801.05,1636.23 799.46,1636.25ZM638.34,1624.57L638.06,1626.35L637.79,1628.01L638.34,1624.57ZM757.13,1678.57C757.14,1678.73 757.16,1678.89 757.17,1679.05C757.16,1678.89 757.14,1678.73 757.13,1678.57ZM756.69,1683.13L756.69,1683.11L756.7,1683.09L756.7,1683.08L756.71,1683.08L756.71,1683.06L756.72,1683.05L756.72,1683.02L756.74,1682.99L756.69,1683.13ZM756.65,1683.25L756.64,1683.27L756.64,1683.26L756.65,1683.25ZM756.74,1682.99L756.71,1683.06L756.74,1682.99Z" style="fill:rgb(10,10,10);"/>
            </g>
            <g transform="matrix(4.166667,0,0,4.166667,0,-1639.083333)">
                <path d="M912.05,1280.88C1009.59,1289.72 1106.69,1302.89 1203.17,1319.88C1329.3,1342.09 1454.22,1370.77 1577.78,1404.4L1728,1438.5C1665.68,1421.23 1603.25,1404.37 1540.55,1388.52C1467.57,1370.08 1394.25,1353.02 1320.46,1338.12C1243.52,1322.58 1166.13,1309.4 1088.31,1299.11C1029.73,1291.37 970.96,1285.27 912.05,1280.88Z" style="fill-rule:nonzero;"/>
            </g>
        </g>
    </g>
</svg>
