<?xml version="1.0" encoding="UTF-8" standalone="no"?>
<!DOCTYPE svg PUBLIC "-//W3C//DTD SVG 1.1//EN" "http://www.w3.org/Graphics/SVG/1.1/DTD/svg11.dtd">
<svg width="100%" height="100%" viewBox="0 0 84 82" version="1.1" xmlns="http://www.w3.org/2000/svg" xmlns:xlink="http://www.w3.org/1999/xlink" xml:space="preserve" xmlns:serif="http://www.serif.com/" style="fill-rule:evenodd;clip-rule:evenodd;stroke-linejoin:round;stroke-miterlimit:2;">
    <g transform="matrix(1,0,0,1,-1624.995677,-3317.630904)">
        <g transform="matrix(4.166667,0,0,4.166667,0,-2975.208333)">
            <path d="M395.15,1527.23C395.87,1527.23 396.45,1527.81 396.45,1528.53C396.45,1529.24 395.87,1529.82 395.15,1529.82C394.44,1529.82 393.86,1529.24 393.86,1528.53C393.86,1527.81 394.44,1527.23 395.15,1527.23ZM406.43,1527.23C407.15,1527.23 407.73,1527.81 407.73,1528.53C407.73,1529.24 407.15,1529.82 406.43,1529.82C405.72,1529.82 405.14,1529.24 405.14,1528.53C405.14,1527.81 405.72,1527.23 406.43,1527.23ZM390.88,1510.29L392.96,1510.65C393.29,1510.71 393.55,1510.99 393.58,1511.33L393.81,1514.13L404.96,1514.13L405.57,1514.14L408.13,1514.14L408.16,1514.15L408.2,1514.15C408.76,1514.23 409.25,1514.52 409.58,1514.97C409.92,1515.42 410.06,1515.97 409.98,1516.52L409.03,1523.08C408.85,1524.32 407.77,1525.27 406.51,1525.27L395.58,1525.27C394.27,1525.27 393.15,1524.24 393.05,1522.92L392.13,1512.03L390.62,1511.77C390.21,1511.7 389.94,1511.31 390.01,1510.9C390.08,1510.49 390.48,1510.23 390.88,1510.29ZM402.83,1515.63L393.94,1515.63L394.54,1522.8C394.58,1523.35 395.04,1523.77 395.59,1523.77L406.5,1523.77C407.02,1523.77 407.47,1523.38 407.54,1522.86L408.49,1516.3C408.51,1516.14 408.48,1516 408.38,1515.87C408.28,1515.74 408.15,1515.66 407.99,1515.63L407.94,1515.63L407.83,1515.64L403.69,1515.64L402.83,1515.63ZM404.9,1517.82C405.31,1517.82 405.65,1518.16 405.65,1518.57C405.65,1518.99 405.31,1519.32 404.9,1519.32L402.12,1519.32C401.71,1519.32 401.37,1518.99 401.37,1518.57C401.37,1518.16 401.71,1517.82 402.12,1517.82L404.9,1517.82Z" style="fill:rgb(234,198,102);"/>
        </g>
    </g>
</svg>
